<?xml version="1.0" encoding="UTF-8" standalone="no"?>
<!-- Created with Inkscape (http://www.inkscape.org/) -->

<svg
   width="183.54993mm"
   height="160.85449mm"
   viewBox="0 0 183.54993 160.85449"
   version="1.1"
   id="svg1"
   xml:space="preserve"
   inkscape:version="1.4 (86a8ad7, 2024-10-11)"
   sodipodi:docname="slimak.svg"
   xmlns:inkscape="http://www.inkscape.org/namespaces/inkscape"
   xmlns:sodipodi="http://sodipodi.sourceforge.net/DTD/sodipodi-0.dtd"
   xmlns="http://www.w3.org/2000/svg"
   xmlns:svg="http://www.w3.org/2000/svg"><sodipodi:namedview
     id="namedview1"
     pagecolor="#505050"
     bordercolor="#eeeeee"
     borderopacity="1"
     inkscape:showpageshadow="0"
     inkscape:pageopacity="0"
     inkscape:pagecheckerboard="0"
     inkscape:deskcolor="#505050"
     inkscape:document-units="mm"
     inkscape:zoom="0.46803664"
     inkscape:cx="410.2243"
     inkscape:cy="368.56089"
     inkscape:window-width="1680"
     inkscape:window-height="987"
     inkscape:window-x="-8"
     inkscape:window-y="-8"
     inkscape:window-maximized="1"
     inkscape:current-layer="layer1" /><defs
     id="defs1" /><g
     inkscape:label="Warstwa 1"
     inkscape:groupmode="layer"
     id="layer1"
     style="display:inline"
     transform="translate(-12.452304,-61.226675)" /><path
     style="fill:none;stroke:#000000;stroke-width:1.59669;stroke-opacity:1"
     d="m 26.693209,119.49149 c -0.359912,0.19313 -0.914015,0.0781 -1.310111,0.0781 -0.752104,0 -1.504209,0 -2.256307,0 -0.185055,0 -0.695178,-0.0956 -0.873416,0 -0.07819,0.0437 -0.140189,0.1125 -0.218324,0.15625 -0.113853,0.0625 -0.311377,-0.0312 -0.436708,0 -0.07441,0.025 -0.143161,0.0625 -0.218383,0.0781 -0.09515,0.0188 -0.197815,-0.0312 -0.291099,0 -0.125623,0.0375 -0.237203,0.12501 -0.363933,0.15626 -0.615499,0.16501 -1.277045,0.18063 -1.892386,0.31251 -0.106395,0.025 -0.188201,0.11876 -0.291158,0.15626 -0.10756,0.0375 -0.260044,0.0312 -0.363933,0.0781 -0.63232,0.27126 -1.251903,0.60877 -1.892386,0.85885 -0.250779,0.0981 -0.401689,0.14375 -0.655061,0.23438 -0.05128,0.0125 -0.09719,0.05 -0.14555,0.0781 -0.02447,0.0312 -0.04079,0.0656 -0.07278,0.0781 -0.109017,0.05 -0.327691,0.0375 -0.436708,0.0781 -0.189774,0.0819 -0.728209,0.38189 -0.873409,0.46877 -0.105987,0.0631 -0.178412,0.18438 -0.2911,0.23438 -0.09294,0.0438 -0.194027,0.05 -0.291158,0.0781 -0.07283,0.05 -0.140247,0.11251 -0.218383,0.15626 -0.09352,0.05 -0.270531,0.025 -0.363932,0.0781 -0.148463,0.08 -0.292265,0.23501 -0.436708,0.31251 -0.300306,0.16126 -0.648104,0.23064 -0.946196,0.39064 -0.429949,0.23064 -0.953817,0.3944 -1.382892,0.62441 -0.07825,0.0438 -0.137159,0.11875 -0.218383,0.15625 -0.163962,0.0706 -0.34552,0.0856 -0.509482,0.15626 -0.149978,0.0644 -0.292731,0.24626 -0.436708,0.31251 -0.373896,0.17189 -0.820125,0.30002 -1.164538,0.54628 -0.997255,0.71315 -2.051547,1.46712 -3.056936,2.18616 -0.407458,0.29126 -0.68867,0.79366 -1.091758,1.09304 -0.631947,0.4694 -1.552319,0.88467 -2.110746,1.48344 -0.230793,0.24751 -0.393939,0.57065 -0.65505497,0.78079 -0.08,0.0644 -0.02447,-0.33752 0.07278,-0.31252 0.09707,0.025 -0.04836,0.20814 -0.07278,0.31252 0.63998797,0.28563 0.94301497,0.94704 1.45568397,1.40537 0.244137,0.21814 0.558368,0.33002 0.800629,0.54628 0.272862,0.24376 0.517348,0.50002 0.800623,0.70265 0.196241,0.14001 0.488681,0.21189 0.655055,0.39064 0.150561,0.16126 0.08921,0.20876 0.218383,0.31252 0.37815,0.30439 0.06672,-0.005 0.509483,0.39064 0.117291,0.105 0.227181,0.31689 0.363933,0.39064 0.06864,0.0375 0.15697,0.0312 0.218383,0.0781 0.04312,0.0375 0.03438,0.115 0.07277,0.15626 0.03846,0.0437 0.10721,0.0375 0.14555,0.0781 0.109832,0.11814 0.181267,0.27252 0.291157,0.39065 0.200029,0.21438 0.437291,0.35189 0.655056,0.54627 0.261966,0.23439 0.03787,0.08 0.291158,0.39064 0.276067,0.33877 0.6209,0.72416 0.94619,1.01498 0.375353,0.33564 0.798176,0.59316 1.16455,0.93686 0.180743,0.17001 0.317378,0.39189 0.509482,0.54627 0.275543,0.22189 0.600833,0.39064 0.87341,0.6244 0.364049,0.31252 0.6812,0.68522 1.091763,0.93692 0.188376,0.11563 0.380772,0.22564 0.582257,0.31251 0.02272,0.0125 0.04836,0 0.07278,0 0.14555,0.05 0.299432,0.0825 0.436708,0.15626 0.214829,0.11501 0.327108,0.37877 0.509482,0.54628 0.08239,0.0756 0.204341,0.0862 0.291158,0.15625 0.109774,0.0881 0.181326,0.22376 0.291158,0.31252 0.04312,0.0375 0.09707,0.05 0.14555,0.0781 0.07278,0.05 0.150036,0.0975 0.218325,0.15626 0.107152,0.0919 0.183947,0.22001 0.291157,0.31251 0.231493,0.19876 0.498412,0.34127 0.727843,0.54628 0.171769,0.15376 0.232192,0.26501 0.436707,0.39064 0.60233,0.36939 1.215073,0.72247 1.819606,1.09305 0.220131,0.135 0.422432,0.36126 0.655055,0.46877 0.09194,0.0437 0.199214,0.0375 0.291158,0.0781 0.08041,0.0375 0.140131,0.11438 0.218383,0.15625 0.137276,0.0738 0.299432,0.0825 0.436708,0.15626 0.237785,0.12751 0.588136,0.33189 0.800623,0.46877 0.364806,0.23501 0.720255,0.47502 1.091763,0.70266 0.232833,0.1425 0.298732,0.50314 0.582257,0.6244 0.09288,0.0375 0.199738,0.0375 0.291158,0.0781 0.454654,0.21688 0.262141,0.21563 0.655056,0.46877 0.327574,0.21063 0.543859,0.29189 0.873409,0.46877 0.332877,0.17876 0.617969,0.50127 0.946196,0.70266 0.302753,0.18563 0.5827,0.33876 0.87341,0.54627 0.265287,0.18938 0.07173,-0.05 0.509482,0.15626 0.110823,0.05 0.185113,0.17125 0.291158,0.23438 0.114202,0.0681 0.24705,0.0938 0.363933,0.15626 0.126555,0.0681 0.233881,0.17438 0.363932,0.23438 0.04487,0.0187 0.10051,-0.0188 0.14555,0 0.24874,0.10688 0.369643,0.33127 0.582258,0.46877 0.06578,0.0438 0.149745,0.0438 0.218383,0.0781 0.389744,0.20876 0.771984,0.4919 1.164549,0.70266 0.394756,0.21188 0.729346,0.52127 1.091758,0.78078 0.266103,0.19064 0.590438,0.23876 0.873409,0.39064 0.177771,0.0956 0.344647,0.28439 0.509483,0.39065 0.02098,0.0125 0.04836,0 0.07278,0 0.09707,0.05 0.198106,0.0962 0.291157,0.15625 0.100335,0.0644 0.19327,0.16439 0.291158,0.23439 0.117699,0.0844 0.23464,0.17251 0.363933,0.23438 0.148696,0.0706 0.599452,0.23439 0.436708,0.23439 0.434843,-0.0981 0.770137,0.24751 1.164351,0.30814 0.09608,0.0125 0.197815,-0.0312 0.291158,0 0.08414,0.025 0.137626,0.12 0.218383,0.15625 0.21244,0.095 0.438747,0.15001 0.655056,0.23439 0.400291,0.15626 -0.218383,0 0.436707,0.23439 0.236096,0.0844 0.564486,-0.006 0.800623,0.0781 0.102957,0.0375 0.186453,0.12563 0.291158,0.15626 0.188725,0.0562 0.394231,0.0187 0.582257,0.0781 0.336548,0.10313 0.681451,0.30001 1.018977,0.39064 0.07062,0.0188 0.146307,-0.0125 0.218383,0 0.377334,0.0563 0.807359,0.26251 1.16455,0.39064 0.154406,0.0563 0.287953,0.16314 0.436708,0.23439 0.473881,0.22626 0.971303,0.42502 1.455684,0.6244 0.455178,0.18751 0.947023,0.31251 1.382898,0.54627 0.216227,0.11626 0.431522,0.29439 0.655055,0.39065 0.04487,0.0188 0.09894,-0.0125 0.14555,0 0.577014,0.17688 1.083006,0.48377 1.674032,0.6244 0.118398,0.0312 0.243846,-0.0188 0.363933,0 0.443292,0.0681 0.873101,0.21876 1.310117,0.31251 0.884102,0.18939 -0.774315,-0.33751 0.582258,0.0781 0.167574,0.05 0.330779,0.12876 0.509482,0.15626 0.09608,0.0125 0.196417,-0.025 0.291158,0 0.127545,0.0312 0.237145,0.12188 0.363933,0.15625 0.274027,0.0738 0.598321,0.025 0.873409,0.0781 1.260509,0.24564 -0.454304,0.0975 0.94619,0.23439 0.312134,0.0312 1.724684,-0.10313 1.965173,0 0.08122,0.0375 0.137159,0.12125 0.218383,0.15626 0.192746,0.0825 1.015982,0.2125 1.23733,0.23438 0.449643,0.0438 0.9317,0 1.382898,0 0.946196,0 1.892392,0 2.838582,0 2.959888,0 5.919781,0 8.879668,0 3.493637,0 6.987275,0 10.480919,0 1.188806,0 2.377612,0 3.566418,0 0.512629,0 1.091321,0.0781 1.601252,0 1.01125,-0.15501 -0.16035,0.004 0.436707,-0.15626 0.236563,-0.0631 0.488216,-0.0312 0.727843,-0.0781 0.649596,-0.13064 1.325202,-0.29689 1.965172,-0.46878 0.148871,-0.0375 0.286264,-0.12375 0.436708,-0.15625 0.09515,-0.0188 0.194843,0.0125 0.291158,0 0.321165,-0.0437 0.629696,-0.16126 0.946186,-0.23439 0.21483,-0.05 0.44061,-0.025 0.65506,-0.0781 0.12755,-0.0312 0.23878,-0.11563 0.36394,-0.15625 0.2823,-0.0906 0.53442,-0.006 0.80063,-0.0781 1.28139,-0.34377 -0.39418,-0.006 0.65505,-0.23439 0.54648,-0.1175 1.13933,-0.14875 1.67404,-0.31251 0.0332,-0.0125 0.0396,-0.0694 0.0728,-0.0781 0.0706,-0.0187 0.14654,0.0125 0.21838,0 0.27287,-0.05 0.53017,-0.17188 0.80063,-0.23438 0.14433,-0.0312 0.29483,-0.0375 0.43671,-0.0781 0.19933,-0.0625 0.38374,-0.17001 0.58226,-0.23439 0.0466,-0.0125 0.0995,0.0188 0.14555,0 0.32349,-0.11563 0.62903,-0.33251 0.9462,-0.46877 0.72016,-0.30876 1.45657,-0.62503 2.18352,-0.93691 0.7369,-0.31627 1.5345,-0.5144 2.25631,-0.85885 0.546254,-0.26064 1.173544,-0.50065 1.674034,-0.85885 0.14404,-0.10313 0.27642,-0.24376 0.43671,-0.31252 0.56035,-0.24063 1.14766,-0.42064 1.67403,-0.70272 0.3605,-0.19313 0.79008,-0.29626 1.16455,-0.46877 0.14101,-0.065 0.30514,-0.0712 0.43671,-0.15625 0.0589,-0.0375 0.0885,-0.11563 0.14555,-0.15626 0.49043,-0.35064 1.18237,-0.55377 1.74682,-0.78078 0.26866,-0.10813 0.56279,-0.29814 0.80063,-0.46877 0.21797,-0.15564 0.34546,-0.40127 0.58225,-0.54628 0.40385,-0.24751 0.83005,-0.40627 1.23733,-0.6244 0.12161,-0.065 0.3785,-0.30626 0.50949,-0.39064 0.39796,-0.25626 0.83904,-0.48877 1.23729,-0.70266 0.30415,-0.16313 0.59041,-0.42252 0.87341,-0.6244 1.20082,-0.64884 2.48338,-1.12943 3.6391,-1.87321 0.13925,-0.09 0.0116,-0.0919 0.14566,-0.23438 0.13402,-0.14376 0.30299,-0.24689 0.43642,-0.39065 0.74802,-0.80241 1.39321,-1.67851 2.32915,-2.26416 0.43758,-0.27376 0.87073,-0.5894 1.31006,-0.85885 1.27505,-0.78153 2.57853,-1.51456 3.78482,-2.42035 0.27793,-0.20876 0.4673,-0.4794 0.72781,-0.70266 1.77812,-1.52594 -0.60825,0.5944 0.94619,-0.70272 0.081,-0.0675 0.13576,-0.16813 0.2185,-0.23438 1.14686,-0.92273 2.34202,-1.72008 3.42082,-2.73269 0.12761,-0.24001 0.4067,-0.23313 0.58209,-0.39064 0.067,-0.0625 0.0909,-0.16125 0.14566,-0.23438 0.13984,-0.18751 0.28609,-0.36877 0.437,-0.54628 0.77524,-0.91479 1.68425,-1.77314 2.32909,-2.81074 0.41602,-0.66947 0.49934,-1.53651 0.80064,-2.26423 0.12702,-0.30689 0.35601,-0.57127 0.50925,-0.85879 0.0594,-0.11188 0.26395,-0.67815 0.29133,-0.78078 0.0175,-0.075 -0.0175,-0.15876 0,-0.23439 0.11129,-0.47627 0.4236,-0.87322 0.58208,-1.3273 0.035,-0.10063 0.035,-0.21376 0.0728,-0.31252 0.10488,-0.26188 0.29949,-0.53565 0.437,-0.78072 0.11245,-0.20126 0.18587,-0.42689 0.29133,-0.6244 0.12061,-0.22564 0.3024,-0.40814 0.437,-0.6244 0.22665,-0.36502 0.40204,-0.70579 0.58208,-1.09305 0.13868,-0.29814 0.2587,-0.40189 0.36358,-0.70272 0.0699,-0.20001 0.0583,-0.35752 0.14567,-0.54627 0.0408,-0.0838 0.11304,-0.14689 0.14567,-0.23439 0.0175,-0.05 -0.0175,-0.10688 0,-0.15626 0.0524,-0.16563 0.17887,-0.29938 0.2185,-0.46877 0.035,-0.14688 -0.0291,-0.32001 0,-0.46877 0.06,-0.32126 0.28783,-0.61002 0.36358,-0.93691 0.067,-0.28814 0.0117,-0.58628 0.0728,-0.85885 0.0688,-0.29564 0.32571,-0.57065 0.36417,-0.85885 0.0653,-0.48815 0.006,-0.99392 0.0728,-1.48344 0.0711,-0.53315 0.0524,0.0125 0.14567,-0.39065 0.0746,-0.31939 0.0117,-0.69115 0.0728,-1.01498 0.005,-0.025 0.0583,-0.41502 0.0728,-0.46877 0.0117,-0.0375 0.0659,-0.0437 0.0728,-0.0781 0.0623,-0.33439 0.0117,-0.68159 0.0728,-1.01498 0.0233,-0.11313 0.12469,-0.27751 0.14567,-0.39064 0.0583,-0.30564 0.0175,-0.62865 0.0728,-0.93692 0.0466,-0.24938 0.17072,-0.44752 0.2185,-0.70265 0.0233,-0.12751 -0.0175,-0.26189 0,-0.39064 0.0117,-0.0813 0.0466,-0.15626 0.0728,-0.23439 0.0233,-0.15626 0.0583,-0.31126 0.0728,-0.46877 0.0291,-0.30814 -0.035,-0.62928 0,-0.93692 0.0291,-0.25251 0.0728,-0.44689 0.0728,-0.70265 -0.23773,-0.82835 0.18004,-1.45263 0.43525,-2.18316 0.0583,-0.16438 0.0932,-0.37814 0.14567,-0.54627 0.11828,-0.38002 0.6506,-1.00861 0.87341,-1.32731 0.0583,-0.0838 0.50517,-0.79698 0.58208,-0.85879 0.0612,-0.05 0.1515,-0.0375 0.2185,-0.0781 0.31289,-0.19188 1.0678,-0.86929 1.3829,-0.93691 0.0717,-0.0125 0.14683,0.0125 0.2185,0 0.12877,-0.025 0.23481,-0.13314 0.36417,-0.15626 0.45972,-0.0819 1.35493,-0.16126 1.8196,-0.0781 0.0524,0.0125 0.0926,0.0669 0.14567,0.0781 0.12702,0.025 0.31172,-0.0437 0.437,0 0.65282,0.23376 1.38027,1.09067 1.89238,1.5615 0.28609,0.26314 1.08218,0.83829 1.23735,1.17118 0.24996,0.5369 -0.24822,-0.11813 0.36416,0.70266 0.0856,0.115 0.2086,0.19438 0.29133,0.31251 0.0653,0.0931 0.0827,0.21751 0.14567,0.31251 0.06,0.09 0.15324,0.14876 0.2185,0.23439 0.48128,0.6309 0.90383,1.34506 1.31012,2.02996 0.2389,0.40315 0.40787,0.85167 0.65509,1.24925 0.0583,0.0919 0.15849,0.14438 0.2185,0.23438 0.0466,0.10438 0.0973,0.20813 0.14567,0.31251 0,0.025 -0.0117,0.0563 0,0.0781 0.11362,0.30377 0.31464,0.60815 0.50983,0.85885 0.16548,0.21251 0.34843,0.40815 0.50925,0.6244 0.16315,0.21876 0.26977,0.48753 0.437,0.70266 0.29308,0.37752 0.67671,0.69378 1.01896,1.01498 0.36126,0.33939 0.76854,0.57565 1.16452,0.85885 0.33037,0.23626 0.61704,0.54565 0.94619,0.78079 0.28551,0.20438 0.60376,0.39314 0.87341,0.6244 0.0728,0.0781 0.14567,0.15626 0.2185,0.23438 0.0233,0.05 0.035,0.11501 0.0728,0.15626 0.17305,0.18501 0.44923,0.30876 0.58208,0.54628 0.13168,0.23501 0.52789,0.93204 0.72787,1.09304 0.15906,0.12813 0.35484,0.18751 0.50924,0.31252 0.0524,0.0437 0.0839,0.12313 0.14567,0.15625 0.0897,0.05 0.20452,0.025 0.29133,0.0781 0.0891,0.0563 0.14567,0.15626 0.2185,0.23439 0.17014,0.10375 0.33445,0.21876 0.50925,0.31251 0.30182,0.16188 0.62911,0.33252 0.94625,0.46877 0.16373,0.0706 0.34552,0.0856 0.50925,0.15626 0.36999,0.15876 -0.36708,-8.8e-4 0.2185,0.15626 0.0466,0.0125 0.0996,-0.0188 0.14567,0 0.32338,0.11563 0.62531,0.34314 0.94624,0.46877 0.23773,0.0925 0.49469,0.12688 0.72781,0.23438 0.43409,0.19938 0.8694,0.34939 1.31012,0.54628 0.0291,0.0125 0.0408,0.0706 0.0728,0.0781 0.2418,0.05 0.48769,0.0188 0.72786,0.0781 0.75001,0.17876 -0.0233,0.15376 0.72781,0.23439 0.12061,0.0125 0.24297,-0.0125 0.36417,0 0.61092,0.0656 1.2074,0.32126 1.8196,0.39064 0.28551,0.0312 1.84682,0.0631 2.11077,0 0.12236,-0.0312 0.60678,-0.22564 0.7278,-0.31251 0.59013,-0.4219 1.14139,-1.0948 1.52851,-1.71764 0.11129,-0.17938 0.0408,0.0312 0.2185,-0.15626 0.10896,-0.11688 0.18179,-0.27314 0.29133,-0.39064 0.0408,-0.0438 0.10721,-0.0375 0.14567,-0.0781 0.13168,-0.14126 0.16198,-0.40814 0.29133,-0.5469 0.0618,-0.0662 0.15674,-0.09 0.2185,-0.15626 0.20685,-0.22188 0.23132,-0.45877 0.50925,-0.6244 0.28434,-0.16938 0.59962,-0.27938 0.87341,-0.46814 0.24938,-0.17189 0.47662,-0.37814 0.72787,-0.54628 0.55644,-0.37314 0.68877,-0.29251 0.94619,-0.93691 0.0653,-0.16376 0.11828,-0.27314 0.0728,-0.46877 -0.10954,-0.47002 -0.40378,-0.99105 -0.58208,-1.40538 -0.074,-0.17188 -0.035,-0.39877 -0.14567,-0.54627 -0.0903,-0.12063 -1.32632,-0.53815 -1.52844,-0.6244 -0.23482,-0.10063 -0.48303,-0.27814 -0.72787,-0.39065 -0.23074,-0.10625 -0.50983,-0.17188 -0.72781,-0.31251 -0.19927,-0.12813 -0.35659,-0.30939 -0.58208,-0.39064 -1.02689,-0.36689 -2.05454,-0.86641 -3.05695,-1.32725 -0.55004,-0.25313 -1.12169,-0.35564 -1.67406,-0.6244 -0.12877,-0.0631 -0.2354,-0.17126 -0.36416,-0.23439 -0.46497,-0.22688 -1.02573,-0.34064 -1.45568,-0.6244 -0.25229,-0.16625 -0.47895,-0.37501 -0.7278,-0.54627 -0.12936,-0.17501 -0.35077,-0.13251 -0.50925,-0.23439 -0.1177,-0.0756 -0.18121,-0.22376 -0.29134,-0.31251 -0.30939,-0.24876 0.0175,0.0563 -0.29133,-0.0781 -0.3496,-0.15001 -0.6273,-0.49752 -0.94619,-0.70265 -0.28317,-0.18251 -0.5847,-0.3744 -0.87341,-0.54628 -0.0857,-0.05 -0.53198,-0.25813 -0.65504,-0.39064 -0.19169,-0.20563 -0.0728,-0.75072 -0.0728,-1.01498 0,-0.60878 -0.0705,-1.27162 0,-1.87383 0.0233,-0.20626 0.32862,-0.54815 0.437,-0.70266 0.0524,-0.0781 0.20801,-0.29751 0.29133,-0.31251 0.41544,-0.0744 0.84277,0.1575 1.23735,0.23438 0.11945,0.025 0.25987,-0.0669 0.36417,0 0.20626,0.13313 0.49643,0.34189 0.65503,0.54628 0.3496,0.45001 0.80862,0.97123 0.94619,1.5615 0.0583,0.25126 0.16256,0.6169 0.29133,0.85885 -0.0408,0.24564 0.21151,0.24751 0.29133,0.39002 0.28201,0.5044 0.46439,1.13892 0.94619,1.48344 1.26695,0.9061 2.89055,1.55594 4.36702,1.9519 0.10896,0.0312 0.28551,0.1925 0.36417,0.23438 0.4737,0.25439 1.04699,0.36627 1.52844,0.6244 0.25113,0.13438 0.21151,0.22126 0.50925,0.31252 0.0699,0.0187 0.14917,-0.025 0.2185,0 0.0827,0.0312 0.14043,0.11438 0.2185,0.15625 0.17539,0.0944 0.40612,0.17126 0.58209,0.23439 0.33911,0.12125 0.62339,0.40814 0.94619,0.54627 0.0466,0.0188 0.0979,-0.0125 0.14566,0 0.22142,0.05 0.24239,0.16501 0.437,0.23439 0.23248,0.0831 0.49585,0.1275 0.72787,0.23438 0.0734,0.0313 0.76836,0.39065 0.80058,0.39065 0.39155,0 0.91519,-1.16774 1.0918,-1.48344 0.0175,-0.0313 0.0647,-0.0438 0.0728,-0.0781 0.0175,-0.0756 -0.0117,-0.15751 0,-0.23439 0.0117,-0.0563 0.0466,-0.10438 0.0728,-0.15625 0.0233,-0.0781 0.06,-0.15314 0.0728,-0.23439 0.0117,-0.0769 -0.0117,-0.15751 0,-0.23438 0.0291,-0.17126 0.1544,-0.30814 0.2185,-0.46878 0.0775,-0.19438 0.20684,-0.78972 0.2185,-0.85885 0.074,-0.43814 0.0117,-0.88891 0.0728,-1.3273 0.12294,-0.92086 0.0116,0.40439 0.2185,-0.70266 0.0233,-0.12751 -0.0117,-0.26126 0,-0.39064 0.0583,-0.54878 0.074,-0.0819 0.2185,-0.6244 0.0524,-0.19251 -0.035,-0.42752 0,-0.62441 0.0466,-0.25751 0.19053,-0.43314 0.2185,-0.70265 0.0117,-0.12938 -0.0233,-0.26251 0,-0.39064 0.0291,-0.16189 0.11362,-0.30752 0.14566,-0.46877 0.0618,-0.30939 0.10372,-0.62378 0.14567,-0.93692 0.0524,-0.38252 -0.0466,-0.78735 0,-1.17111 0.0629,-0.54003 0.14567,-1.09249 0.14567,-1.639585 0,-0.20188 0.0291,-0.42752 0,-0.6244 -0.035,-0.21251 -0.16839,-0.44439 0,-0.6244"
     id="path1" /><path
     style="fill:none;stroke:#000000;stroke-width:1.59669;stroke-opacity:1"
     d="m 165.49252,104.65921 c 0.0973,0.05 0.24239,0.26001 0.29133,0.15626 0.0466,-0.10438 -0.34494,-0.25689 -0.29133,-0.15626 0.14508,0.27189 0.39971,0.45815 0.58208,0.70272 0.28201,0.37814 0.50925,0.79629 0.80064,1.17112 0.23773,0.30626 0.57742,0.53939 0.80058,0.85885 0.0291,0.0437 -0.0973,0.005 -0.14566,0 -0.2185,-0.025 -0.43817,-0.0375 -0.65504,-0.0781 -0.22083,-0.0375 -0.43525,-0.11188 -0.65503,-0.15626 -0.55703,-0.11188 -0.91414,-0.15376 -1.16457,-0.78072 -0.18529,-0.46377 -0.0728,-1.67239 -0.0728,-2.18616 0,-0.12063 -0.17539,-0.59315 -0.2185,-0.54627 -0.035,0.0375 0,0.10438 0,0.15625 0,0.72997 -0.0117,1.30137 0.29133,1.9519 0.14916,0.32001 0.29133,0.33002 0.29133,0.31251 0,-0.05 -0.73421,-0.55314 -0.94619,-0.78078 -0.0466,-0.05 0,-0.65709 0,-0.78078 0,-0.13376 -0.0664,-0.31564 0.0728,-0.39065 0.14566,-0.0781 0.29308,0.15126 0.43699,0.23439 0.19112,0.11063 0.44458,0.13188 0.58209,0.31251 3.083,4.04206 -0.29308,0.21251 1.01896,1.79571 0.0938,0.11375 0.42943,0.37501 0.50925,0.54627 0.0233,0.05 0.035,0.19751 0.0728,0.15626 0.0804,-0.0863 0.35252,-0.97892 0.50925,-0.93692 0.69064,0.18501 1.19761,1.75552 1.52851,1.87383 0.0926,0.0312 0.18179,-0.39064 0.29133,-0.39064 0.035,0 0.0408,0.0625 0.0728,0.0781 0.0687,0.0375 0.15615,0.0312 0.21849,0.0781 0.58034,0.44502 0.88099,1.2573 1.3829,1.7957 0.47429,0.50877 0.12702,-0.31251 0.43642,-0.31251 0.22025,0 0.48944,0.47502 0.58208,0.6244 0.11887,0.19126 0.29483,0.66572 0.50925,0.78078 0.14625,0.0781 0.46031,-0.15625 0.65503,-0.0781 0.68866,0.27688 0.90628,0.92479 1.74683,1.01498 0.19753,0.0188 0.32921,-0.35877 0.437,-0.31252 0.68743,0.29502 0.0688,-0.005 0.36417,0.31252 0.0408,0.0438 0.10371,0.0438 0.14567,0.0781 0.39155,0.35001 0.69267,0.63465 1.23728,0.78078 0.0938,0.025 0.35718,0.0437 0.437,0 0.0612,-0.0312 0.0839,-0.18876 0.14567,-0.15626 0.0466,0.025 0.0408,0.10751 0.0728,0.15626 0.16548,0.26626 0.006,-0.28939 0.2185,0.39064 0.0408,0.13313 0.035,0.60565 0.2185,0.70272 0.1212,0.065 0.5716,-0.54065 0.58208,-0.54627 0.20044,-0.10751 0.22025,-0.0806 0.36417,-0.23439"
     id="path2" /><path
     style="fill:none;stroke:#000000;stroke-width:1.59669;stroke-opacity:1"
     d="m 182.59683,99.506235 c 0.10663,-0.68803 0.18412,-0.86692 0.14567,-1.48344 -0.0117,-0.20939 -0.0606,-0.41502 -0.0728,-0.62441 -0.0175,-0.31188 0.0635,-0.63202 0,-0.93691 -0.0524,-0.26689 -0.18995,-0.50627 -0.2185,-0.78072 -0.0944,-0.90973 -0.0117,-1.90565 0.0728,-2.81075 0.035,-0.37877 -0.0693,-0.79797 0,-1.17111 0.0233,-0.13751 0.12003,-0.25314 0.14567,-0.39065 0.0583,-0.30626 0,-0.6244 0,-0.93691 0,-0.65059 0,-1.30125 0,-1.9519 0,-0.72435 0.10662,-1.55938 -0.0728,-2.26416 -0.13168,-0.51878 -0.28492,-1.07974 -0.50925,-1.56157 -0.0629,-0.13563 -0.15965,-0.25189 -0.2185,-0.39002 -0.13751,-0.32501 -0.21442,-0.6939 -0.36416,-1.01504 -0.0408,-0.0838 -0.11129,-0.14813 -0.14567,-0.23439 -0.0408,-0.0987 -0.035,-0.21188 -0.0728,-0.31251 -0.0944,-0.27064 -0.25754,-0.51502 -0.36417,-0.78079 -0.26686,-0.66809 -0.47603,-1.35549 -0.7278,-2.02996 -0.17306,-0.46502 -0.44866,-0.9271 -0.58209,-1.40537 -0.0408,-0.15189 -0.0233,-0.32002 -0.0728,-0.46877 -0.0466,-0.14251 -0.15499,-0.25439 -0.2185,-0.39065 -0.22899,-0.49189 -0.4469,-1.0301 -0.58208,-1.5615 -0.11304,-0.44502 -0.19694,-0.89704 -0.36417,-1.32731 -0.28376,-0.73022 -0.61354,-1.44269 -0.87341,-2.1861 -0.35601,-1.01879 -0.6904,-2.04034 -1.09174,-3.04494 -0.15616,-0.39127 -0.36708,-0.77404 -0.50984,-1.17118 -0.19286,-0.53752 -0.29949,-1.11461 -0.50925,-1.63957 -0.0349,-0.0863 -0.11128,-0.14813 -0.14566,-0.23439 -0.18238,-0.45689 0.035,-0.19875 -0.14567,-0.39064"
     id="path3" /><path
     style="fill:none;stroke:#000000;stroke-width:1.59669;stroke-opacity:1"
     d="m 162.58117,82.329545 c -0.34493,-0.28252 -0.71038,-0.35064 -1.09174,-0.0781 -0.1142,0.0819 -0.18121,0.22376 -0.29133,0.31251 -0.13052,0.10501 -0.30648,0.12938 -0.437,0.23439 -0.30998,0.24938 -0.48011,0.71628 -0.72786,1.01498 -0.0583,0.07 -0.15616,0.09 -0.2185,0.15626 -0.0635,0.0681 -0.12411,2.55898 -0.0728,2.88881 0.13751,0.88285 0.57043,1.69883 1.01897,2.42036 0.0932,0.15 0.26336,0.24626 0.36416,0.39001 0.035,0.0438 0.035,0.11501 0.0728,0.15626 0.0408,0.0437 0.10721,0.0375 0.14566,0.0781 0.0175,0.0188 -0.0117,0.0563 0,0.0781 0.11013,0.17688 0.27444,0.41627 0.43642,0.54627 0.37932,0.30501 0.81981,0.5569 1.23735,0.78072 0.42243,0.22626 -9.3e-4,0.10688 0.50925,0.31252 0.2622,0.10563 0.39912,0.0375 0.65509,0.0781 0.1614,-0.29314 0.27618,0.1325 0.36358,0.15625 0.19228,0.05 1.65716,0.0375 1.81961,0 0.2185,-0.05 0.25462,-0.16938 0.437,-0.23438 0.1678,-0.0625 0.33911,-0.10626 0.50983,-0.15626 0.82173,-0.24064 1.2018,-0.44314 1.89238,-0.93692 0.0886,-0.0631 0.16256,-0.0563 0.2185,-0.15625 0.0583,-0.10001 0.0897,-0.21251 0.14566,-0.31252 0.0711,-0.12688 0.17772,-0.23751 0.2185,-0.39064 0.18179,-0.68172 -0.006,-1.42031 -0.29133,-2.02996 -0.0623,-0.13376 -0.16897,-0.23126 -0.2185,-0.39064 -0.33678,-1.08399 -0.8388,-1.8449 -1.52845,-2.73262 -0.20859,-0.26877 -0.10604,-0.0756 -0.437,-0.31252 -0.1579,-0.1125 -0.29133,-0.26001 -0.43699,-0.39064 -0.31697,-0.28314 -0.60557,-0.61503 -0.94619,-0.85879 -0.37524,-0.26813 -0.83741,-0.51252 -1.23735,-0.78078 -0.2925,-0.19626 -0.54713,-0.40689 -0.87342,-0.54628 -0.38164,-0.16375 -1.17011,0.65028 -1.23729,0.70272 z"
     id="path4" /><path
     style="fill:none;stroke:#000000;stroke-width:1.59669;stroke-opacity:1"
     d="m 163.01788,85.140295 c -0.62852,0.23563 -1.43155,0.33251 -1.89238,0.93685 -0.70864,0.92904 -0.005,1.68157 0.65503,2.26422 0.0833,0.0738 0.53431,0.35314 0.72787,0.23439 0.15207,-0.0931 0.29891,-0.19689 0.437,-0.31252 0.35309,-0.29438 0.33503,-0.5769 0.2185,-1.01498 -0.10314,-0.38751 -0.69256,-1.01579 -1.01897,-1.24924 -0.0175,-0.0125 -0.0117,0.0563 0,0.0781 0.0647,0.18563 0.12527,0.37502 0.2185,0.54627 0.30998,0.57003 1.15146,1.01498 1.74683,1.01498 0.19403,0 0.38806,0 0.58208,0 0.0233,0 0.0676,0.025 0.0728,0 0.0717,-0.36001 0.16373,-0.72553 0.14566,-1.09304 -0.006,-0.15126 -0.13984,-0.26439 -0.2185,-0.39065 -0.0781,-0.12625 -0.78386,-1.12311 -1.01902,-0.70265 -0.0524,0.0894 -0.0291,0.21376 0,0.31251 0.0688,0.22064 0.18354,0.42252 0.29133,0.62441 0.0868,0.16313 0.1818,0.32188 0.29134,0.46877 0.0856,0.115 0.19402,0.20813 0.29133,0.31251 0.0728,0.0781 0.11537,0.23438 0.2185,0.23438 0.0635,0 -0.0699,-0.23876 -0.29133,-0.6244 -0.52615,-0.91748 -0.38631,-0.76934 -1.45568,-1.63963 -1.00661,-0.81916 -0.93582,-0.68622 -2.1107,-1.01498 -0.19345,-0.0563 -0.38689,-0.10938 -0.58208,-0.15626 -0.0233,-0.005 -0.0857,-0.025 -0.0728,0 0.58208,0.99879 1.60163,1.6657 2.62019,2.02996 0.25288,0.0906 0.62817,0.21814 0.72787,-0.15625 0.0291,-0.11376 -0.0291,-0.75216 -0.0728,-0.78079 -0.14566,-0.0975 -0.38805,0.20814 -0.50925,0.0781 -0.1748,-0.18751 -0.0524,-0.5344 -0.14566,-0.78072 -0.0583,-0.15188 -0.78992,0.18126 -0.87342,0.39064 -0.0408,0.0956 0,0.20814 0,0.31251 0,0.58253 0.11828,1.32688 -0.0728,1.87384 -0.0629,0.18 -0.15383,0.48252 -0.2185,0.46877 -0.18121,-0.0375 -0.62042,-0.40252 -0.72787,-0.54628 -0.035,-0.0437 -0.55936,-1.03692 -0.50925,-1.17111 0.0408,-0.10813 0.0688,-0.23001 0.14567,-0.31251 0.10022,-0.10751 0.24588,-0.15001 0.36358,-0.23439 0.61926,-0.44252 1.05422,-0.79585 1.74683,-1.09305 0.0926,-0.0375 0.33154,-0.12813 0.437,-0.15625 0.0705,-0.0188 0.2185,0.0781 0.2185,0 0,-0.36252 -0.96052,-0.58815 -1.16457,-0.62441 -0.13168,-0.025 -0.52032,-0.0125 -0.65503,0.0781 -0.72437,0.48565 -1.45585,2.18785 -1.52851,3.12301 -0.0524,0.69353 0.0175,1.58251 0.50925,2.1081 0.0722,0.0775 0.4335,0.29188 0.50925,0.31251 0.26278,0.0706 0.67787,0 0.94619,0 0.511,0 1.09448,0.0775 1.60128,0 0.22782,-0.0375 0.43467,-0.16313 0.65503,-0.23439 0.19228,-0.0625 0.36825,-0.05 0.50983,-0.23438 0.0693,-0.0894 0.0973,-0.20813 0.14567,-0.31251 0.0233,-0.05 0.0728,-0.0981 0.0728,-0.15626 0,-0.21001 -1.1e-4,-0.43002 -0.0728,-0.6244 -0.21267,-0.57003 -0.72344,-0.85573 -1.16451,-1.17118 -0.0291,-0.0188 -0.0408,-0.0781 -0.0728,-0.0781 -0.55936,0 -0.87289,1.59095 -0.80064,2.10803 0.0408,0.27689 0.12994,0.56003 0.29134,0.78072 0.12061,0.16501 0.33445,0.21876 0.50924,0.31252 0.58739,0.31501 1.79514,0.87216 2.32909,0.15625 0.47488,-0.6364 -1.00078,-2.5643 -1.8196,-1.79576 -0.0728,0.0681 -0.41894,0.79759 -0.437,0.85885 -0.18005,0.62853 -0.0991,1.68607 0.58208,1.9519 0.1614,0.0631 0.34203,0.0375 0.50925,0.0781 0.58908,0.13563 0.78998,0.23126 1.3829,0 0.0787,-0.0312 0.56344,-0.25001 0.58208,-0.39064 0.0175,-0.11625 0.11012,-0.9951 -0.0728,-1.09311 -0.0897,-0.05 -0.2016,0.0312 -0.29133,0.0781 -0.50867,0.27251 0.3863,1.36325 0.87341,1.01498 0.30007,-0.21438 0.50808,-0.5519 0.72787,-0.85885 0.53255,-0.74241 0.3292,-1.63276 -0.58209,-1.7957 -0.21558,-0.0375 -0.43641,0 -0.65509,0 -0.0117,0 -0.437,-0.0563 -0.50925,0.0781 -0.38572,0.7239 0.35659,1.95802 1.09174,1.32724 0.24705,-0.21188 0.10605,-0.67753 0.0728,-1.01498 -0.0903,-0.91748 -0.69198,-1.96509 -1.52845,-2.26416 -0.095,-0.0312 -0.19752,-0.11563 -0.29133,-0.0781 -1.06179,0.42689 0.34144,2.3851 1.23729,1.56151 0.1882,-0.17314 0.15848,-0.4819 0.14566,-0.70266 -0.0635,-1.0843 -0.035,-0.97573 -0.72786,-1.79577 -0.20918,-0.24688 -0.54305,-0.35376 -0.80059,-0.0781 -0.0967,0.10375 -0.0967,0.49564 -0.0728,0.6244 0.0117,0.0563 0.035,0.19751 0.0728,0.15625 0.0524,-0.0563 0.0175,-0.15813 0,-0.23438 -0.19344,-0.93242 -1.00247,-1.38625 -1.81966,-1.56157 -0.51216,-0.11 -0.51566,0.16376 -0.2185,0.5469 0.21734,0.28001 1.50986,0.35877 1.3829,-0.39064 -0.10197,-0.60378 -0.31522,-0.73928 -0.72781,-1.09311 -0.0291,-0.025 -0.0408,-0.0781 -0.0728,-0.0781 -0.16198,0 -0.15382,0.13 -0.2185,0.23438 -0.11712,0.18876 -0.14567,0.32564 -0.14567,0.54628"
     id="path5" /><path
     style="fill:none;stroke:#000000;stroke-width:1.59669;stroke-opacity:1"
     d="m 167.31212,88.185235 c 0.3933,0.12626 0.6615,0.31939 0.94619,0.6244 0.16839,0.18064 0.94619,0.75847 0.94619,0.93692 0,0.29814 -0.31405,0.25876 -0.43641,0.39064 -0.0233,0.025 -0.0973,0.05 -0.0728,0.0781 0.067,0.0719 0.0583,-0.38939 0.14567,-0.70272 0.1212,-0.43314 0.42302,-0.75366 0.29133,-1.24918 -0.0291,-0.11188 -0.10255,-0.20563 -0.14566,-0.31251 -0.33504,-0.8391 -0.5547,-1.26868 -1.45568,-1.48344 -0.19402,-0.0437 -0.63603,-0.18501 -0.65503,-0.15626 -0.41544,0.62378 -0.18295,0.44315 -0.50925,1.09311 -0.2319,0.4619 -0.6601,0.86967 -0.87341,1.32725 -0.035,0.0737 -0.035,0.16375 -0.0728,0.23438 -0.19635,0.35127 -0.0746,0.002 -0.29133,0.23439 -0.0705,0.0756 -0.10779,0.31939 -0.14566,0.39064 -0.12469,0.23376 -0.36417,0.5469 -0.58209,0.70266 -0.60649,0.43377 -1.55583,0.0631 -2.1107,-0.23439"
     id="path6" /><path
     style="fill:none;stroke:#000000;stroke-width:1.59669;stroke-opacity:1"
     d="m 163.67291,92.010905 c -0.77389,0.28751 -1.59085,0.50002 -2.40186,0.6244 -0.14392,0.025 -0.29366,-0.025 -0.437,0 -0.12877,0.025 -0.23831,0.11751 -0.36416,0.15626 -0.11654,0.0375 -0.24298,-0.0125 -0.36359,0 -0.78182,0.0644 -1.54424,0.0781 -2.32909,0.0781 -0.8913,0 -1.75341,0.0188 -2.62024,-0.23439 -0.80047,-0.23438 -1.58101,-0.84441 -2.25631,-1.32731 -0.26337,-0.18813 -0.55062,-0.33814 -0.80064,-0.54627 -0.45973,-0.38377 -0.72612,-0.93473 -1.09174,-1.40537 -0.0658,-0.085 -0.16548,-0.13939 -0.2185,-0.23439 -0.0233,-0.0437 0.0175,-0.10813 0,-0.15626 -0.15732,-0.42189 -0.39156,-0.6884 -0.437,-1.17111 -0.035,-0.40377 0,-0.84379 0,-1.24924 0,-0.70266 0,-1.40538 0,-2.10803 0,-0.37252 0.0524,-0.80548 0,-1.17118 -0.0466,-0.31814 -0.14567,-0.6244 -0.2185,-0.93685 -0.1579,-0.67772 -0.25055,-1.34231 -0.36417,-2.03003 -0.10837,-0.65897 -0.3193,-1.28281 -0.36416,-1.9519 -0.0233,-0.36314 0.0233,-0.72947 0,-1.09305 -0.0594,-0.9611 -0.25521,-2.9885 0.0728,-3.90379 0.0408,-0.12126 0.15965,-0.19876 0.2185,-0.31251 0.0635,-0.12251 0.0821,-0.26814 0.14566,-0.39065 0.18238,-0.35251 0.44633,-0.67884 0.65504,-1.01498 0.39563,-0.63659 0.60574,-1.37431 1.16457,-1.87383 0.0635,-0.0563 0.62031,-0.5244 0.65503,-0.54627 0.15849,-0.10188 0.34727,-0.13939 0.50925,-0.23439 0.32804,-0.19188 0.61238,-0.52377 0.94619,-0.70266 0.18529,-0.0994 0.38981,-0.15188 0.58208,-0.23438 0.15732,-0.0675 0.39797,-0.25251 0.50925,-0.31251 0.28201,-0.15126 0.57801,-0.27127 0.87342,-0.39065 0.43117,-0.17313 0.88046,-0.29126 1.31012,-0.46877 1.22628,-0.50627 -1.74077,0.45002 1.23729,-0.39064 1.43884,-0.40627 -0.3362,0.0681 0.72787,-0.31251 0.25987,-0.0931 0.94566,0 1.23735,0 0.46438,0 1.15763,-0.095 1.60122,0 0.39388,0.0844 1.25494,0.48002 1.60128,0.70265 0.13343,0.0856 0.23306,0.22251 0.36358,0.31252 0.72507,0.50002 1.56446,0.84872 2.25631,1.40537 0.41952,0.33752 0.8292,0.73484 1.23735,1.09305 0.33911,0.29751 0.74238,0.56565 1.01897,0.93691 0.33445,0.44815 0.63108,0.94055 0.94619,1.40532 0.55295,0.81559 1.16352,1.63688 1.5285,2.57655 0.17772,0.45814 0.12003,0.85253 0.2185,1.3273 0.11304,0.54565 0.11712,1.16368 0,1.71764 -0.06,0.28439 -0.30357,1.10824 -0.36416,1.56151 -0.0291,0.23313 -0.0291,0.47127 -0.0728,0.70272 -0.0408,0.22313 -0.32046,0.93085 -0.36416,1.09304 -0.0833,0.31314 -0.0973,0.63409 -0.2185,0.93692 -0.035,0.0862 -0.11012,0.14876 -0.14567,0.23439 -0.0623,0.15063 -0.0973,0.31251 -0.14566,0.46877 -0.14567,0.28626 -0.30066,0.5669 -0.437,0.85885 -0.11654,0.25063 -0.17422,0.53002 -0.29134,0.78072 -0.24821,0.53252 -0.7278,1.27968 -0.7278,1.87383"
     id="path7" /><path
     style="fill:none;stroke:#000000;stroke-width:1.59669;stroke-opacity:1"
     d="m 175.53674,66.558225 c -0.24705,-1.38056 -0.38631,-2.80468 -0.80064,-4.13805 -0.19869,-0.63916 0.0291,0.0125 -0.0728,-0.62441 -0.035,-0.22188 -0.19344,-0.37251 -0.29133,-0.54627 -0.32804,-0.5869 -0.41369,-1.32825 -1.01897,-1.7177 -0.0658,-0.0437 -0.14974,-0.0437 -0.2185,-0.0781 -0.0781,-0.0438 -0.13517,-0.12626 -0.21849,-0.15626 -0.0688,-0.025 -0.14917,0.025 -0.2185,0 -0.10838,-0.0375 -0.66576,-0.34876 -0.72781,-0.39064 -0.20102,-0.21501 -0.20044,-0.24563 -0.437,-0.39064 -0.1882,-0.11563 -0.39913,-0.18751 -0.58208,-0.31251 -0.78736,-0.53753 -1.56405,-1.11218 -2.40187,-1.56157 -0.43699,-0.23439 0,0.15625 -0.65503,-0.23439 -0.10663,-0.0638 -0.87749,-0.76059 -0.94619,-0.85885 -0.13692,-0.19563 -0.14741,-0.47002 -0.29133,-0.6244"
     id="path8" /><path
     style="fill:none;stroke:#000000;stroke-width:1.59669;stroke-opacity:1"
     d="m 168.76785,55.393365 c 0.0466,-0.23439 0.0606,-0.48065 0.14567,-0.70266 0.1579,-0.41064 0.5815,-0.88885 0.80064,-1.24924 0.2319,-0.38127 0.45914,-0.76722 0.65509,-1.17111 0.28726,-0.59191 0.55586,-1.38382 0.72781,-2.03003 0.34261,-1.28543 -0.33562,0.57627 0.29133,-1.17111 0.0583,-0.16314 0.17364,-0.30064 0.2185,-0.46878 0.035,-0.1275 0.035,-0.26438 0.0728,-0.39064 0.0583,-0.18626 0.22957,-0.48189 0.29134,-0.70265 0.19752,-0.70522 -0.0891,-0.0788 0.2185,-0.93692 0.24879,-0.69428 0.56518,-1.376 0.72786,-2.10803 0.92277,-0.33751 0.12761,-0.88873 0.2185,-1.32731 0.0524,-0.26501 0.18238,-0.51189 0.2185,-0.78072 0.0233,-0.18063 -0.0466,-0.37127 0,-0.5469 0.0291,-0.11188 0.10721,-0.20313 0.14567,-0.31251 0.11012,-0.31439 0.0466,-0.61628 0.14566,-0.93692 0.11188,-0.36001 0.27852,-0.8316 0.437,-1.17117 0.18238,-0.39127 0.47254,-0.70166 0.65504,-1.09305 0.18587,-0.39877 0.25054,-0.85023 0.43699,-1.24918 0.23948,-0.51315 0.46672,-1.02211 0.65509,-1.56151 0.0839,-0.24001 0.0763,-0.45564 0.14567,-0.70272 0.13751,-0.49189 0.14858,-0.25313 0.2185,-0.70265 0.006,-0.05 -0.0175,-0.10688 0,-0.15626 0.0524,-0.16563 0.18645,-0.29751 0.2185,-0.46877 0.0117,-0.0763 -0.0117,-0.15688 0,-0.23438 0.0583,-0.4969 0.19927,-0.99224 0.29133,-1.48338 0.14334,-0.7676 0.36417,-1.56176 0.36417,-2.34229"
     id="path9" /><path
     style="fill:none;stroke:#000000;stroke-width:1.59669;stroke-opacity:1"
     d="m 179.61265,23.226075 c -0.50925,0.99561 -0.81573,2.08934 -1.23729,3.12308 -0.0583,0.13875 -0.15965,0.25188 -0.2185,0.39064 -0.18412,0.43377 -0.289,0.90641 -0.50924,1.32725 -0.12877,0.24563 -0.29891,0.46314 -0.437,0.70271 -0.34552,0.60253 -0.50051,1.36556 -0.65509,2.02997 -0.16082,0.69047 -0.14567,0.24938 -0.14567,0.6244"
     id="path10" /><path
     style="fill:none;stroke:#000000;stroke-width:1.59669;stroke-opacity:1"
     d="m 167.23935,54.846835 c -0.16956,0 -0.34377,0.0438 -0.50925,0 -0.54246,-0.13438 -0.96973,-0.67628 -1.45567,-0.93691 -0.78526,-0.42127 -1.59522,-0.88054 -2.32909,-1.40538 -0.30765,-0.22001 -0.61541,-0.44752 -0.94619,-0.6244 -0.0653,-0.0375 -0.14858,0.0187 -0.2185,0 -0.17771,-0.0563 -0.33037,-0.18626 -0.50925,-0.23438 -0.5209,-0.14001 -1.06639,-0.19314 -1.60122,-0.23439 -0.1212,-0.0125 -0.24414,0.0188 -0.36417,0 -1.04361,-0.18626 -0.0466,-0.12313 -0.87341,-0.23438 -0.24764,-0.0313 -0.56111,0.0737 -0.80064,0 -0.12586,-0.0375 -0.23715,-0.12251 -0.36417,-0.15626 -0.31347,-0.0838 -0.70083,0.0312 -1.01896,0 -0.59986,-0.0563 -0.80589,-0.11063 -1.3829,-0.23439 -0.15557,-0.0312 -0.36941,-0.003 -0.50925,-0.0781 -0.0781,-0.0438 -0.13693,-0.12125 -0.2185,-0.15625 -0.0903,-0.0375 -0.19694,0.025 -0.29133,0 -0.14684,-0.0375 -0.37291,-0.0831 -0.50925,-0.15626 -0.11887,-0.0637 -0.35368,-0.75872 -0.36417,-0.85885 -0.0915,-0.88541 0,-1.91108 0,-2.81068 0,-0.59003 -0.0524,-1.20962 0,-1.79577 0.0291,-0.34002 0.18296,-0.67559 0.2185,-1.01498 0.0594,-0.57565 0,-1.22093 0,-1.79577 0,-0.88485 0,-1.7697 0,-2.65455 0,-0.70272 0,-1.40538 0,-2.10803 0,-0.18189 0.0408,-0.36877 0,-0.54628 -0.0728,-0.28626 -0.14567,-0.57252 -0.2185,-0.85885 0,-0.10438 0.0175,-0.21001 0,-0.31251 -0.0291,-0.16126 -0.11245,-0.30751 -0.14567,-0.46877 -0.0408,-0.20314 0.0175,-0.41689 0,-0.6244 -0.0175,-0.20939 -0.0583,-0.41565 -0.0728,-0.62441 -0.0175,-0.23376 0.0408,-0.47314 0,-0.70271 -0.0291,-0.16126 -0.10837,-0.30877 -0.14567,-0.46877 -0.0851,-0.36502 -0.16839,-0.79666 -0.21849,-1.17112 -0.0606,-0.45502 0.19227,0.32377 -0.0728,-0.6244 -0.0291,-0.11126 -0.11129,-0.20188 -0.14566,-0.31251 -0.0583,-0.18814 -0.0466,-0.42752 -0.0728,-0.62441 -0.0408,-0.29626 -0.17888,-0.56252 -0.2185,-0.85885 -0.0117,-0.0775 0.0175,-0.15938 0,-0.23438 -0.14275,-0.53628 -0.46496,-0.97323 -0.65509,-1.48338 -0.10138,-0.27251 -0.20684,-0.66709 -0.36416,-0.93692 -0.3228,-0.55377 -0.0961,-0.09 -0.43642,-0.54627 -0.14683,-0.19688 -0.20044,-0.47627 -0.29133,-0.70272 -0.14858,-0.37189 -0.33911,-0.77984 -0.58208,-1.09305 -0.15383,-0.19813 -0.3531,-0.35126 -0.50925,-0.54627 -0.11362,-0.14251 -0.1818,-0.32189 -0.29134,-0.46877 -0.10721,-0.14376 -0.25695,-0.24689 -0.36416,-0.39064 -0.035,-0.0438 -0.035,-0.11501 -0.0728,-0.15626 -0.22199,-0.23813 -0.52323,-0.35001 -0.7278,-0.6244 -0.2051,-0.27501 -0.36766,-0.59003 -0.58209,-0.85885 -0.37698,-0.4719 -0.93284,-1.09717 -1.38295,-1.48344 -0.0845,-0.0725 -0.20452,-0.0863 -0.29133,-0.15626 -0.16665,-0.13375 -0.23657,-0.29814 -0.36417,-0.46877 -0.52323,-0.70203 0.18412,0.27564 -0.29133,-0.23438 -0.0175,-0.0188 0.0117,-0.0563 0,-0.0781 -0.0408,-0.0838 -0.0932,-0.15938 -0.14567,-0.23439 -0.12294,-0.17626 -0.27094,-0.34751 -0.36417,-0.54627"
     id="path11" /><path
     style="fill:none;stroke:#000000;stroke-width:1.59669;stroke-opacity:1"
     d="m 153.04644,50.864975 c -0.97649,-0.12625 -1.47747,0.44877 -2.32909,0.70266 -0.43875,0.13063 -0.88349,0.21876 -1.31012,0.39064 -0.79155,0.31876 -1.54348,0.75597 -2.32909,1.09305 -0.56693,0.24313 -1.20862,0.38751 -1.74683,0.70272 -0.66948,0.39189 -1.2102,0.96135 -1.89238,1.32724 -0.0688,0.0375 -0.14567,0.05 -0.2185,0.0781 -0.24239,0.13001 -0.48886,0.25251 -0.72787,0.39064 -0.56518,0.32627 -1.06796,0.78979 -1.60122,1.17112 -0.19636,0.14 -0.87394,0.52502 -1.01902,0.70271 -0.31639,0.38815 -0.42884,0.74641 -0.65503,1.17112 -0.2051,0.38564 -0.10372,0.1 -0.36417,0.54627 -0.69366,1.19062 0.54246,-0.75572 -0.36358,0.70266 -0.44458,0.71559 -0.88624,1.44206 -1.38296,2.10809 -0.16431,0.22063 -0.14392,0.54065 -0.2185,0.78072 -0.0857,0.27626 -0.25054,0.5169 -0.36416,0.78079 -0.26745,0.62127 -0.46497,1.25293 -0.72781,1.87383 -0.2925,0.69003 -0.78141,1.59919 -1.23735,2.18609 -0.24181,0.31127 -0.65154,0.4569 -0.94619,0.70272 -0.081,0.0675 -0.13926,0.16376 -0.2185,0.23439 -0.20044,0.17938 -0.45098,0.29376 -0.65503,0.46877 -0.52848,0.45377 -0.87458,1.32974 -1.16457,1.9519 -0.035,0.0738 -0.0291,0.16563 -0.0728,0.23438 -0.44923,0.72266 0.0117,-0.18563 -0.437,0.39064 -0.26861,0.34627 -0.0466,0.25689 -0.2185,0.62441 -0.28026,0.60127 -0.12061,0.14688 -0.29133,0.39001 -0.17655,0.10001 -0.12819,0.32314 -0.2185,0.46877 -0.0583,0.0919 -0.15382,0.14813 -0.2185,0.23439 -0.0466,0.0625 -0.2185,0.6144 -0.2185,0.39064 -0.1882,0.35252 -0.63242,0.40814 -0.87161,0.70134 -0.0932,0.11438 -0.13984,0.26377 -0.2185,0.39065 -0.22257,0.35814 -0.49118,0.67634 -0.7278,1.01498 -0.14742,0.21063 10e-4,0.12813 -0.14567,0.39064 -0.035,0.0631 -0.11129,0.0925 -0.14567,0.15626 -0.29716,0.55815 -0.39271,1.23361 -0.65503,1.7957 -0.0408,0.0837 -0.10663,0.15063 -0.14566,0.23439 -0.035,0.08 -0.035,0.23251 -0.0728,0.31251 -0.1713,0.36689 -0.43991,0.71178 -0.58208,1.09305 -0.0763,0.20563 -0.0915,0.6454 -0.14567,0.85878 -0.10196,0.40127 -0.29249,0.65353 -0.437,1.01505 -0.13984,0.35001 -0.0728,0.74128 -0.14566,1.09305 -0.0291,0.13688 -0.11362,0.25438 -0.14567,0.39064 -0.0175,0.0756 0.0117,0.15688 0,0.23438 -0.0408,0.3669 -0.15499,0.64022 -0.2185,1.01499 -0.0693,0.40939 -0.0175,0.83641 -0.0728,1.24924 -0.0524,0.38752 -0.27618,0.71703 -0.36417,1.09305 -0.0175,0.0756 0,0.15625 0,0.23438 -0.0233,0.15626 -0.035,0.31564 -0.0728,0.46877 -0.14567,0.57315 -0.40787,1.07792 -0.58208,1.63964 -0.074,0.23751 -0.0175,0.53565 -0.0728,0.78072 -0.0676,0.29001 -0.18004,0.49189 -0.21849,0.78078 -0.0653,0.48815 -0.13518,0.99267 -0.2185,1.48344 -0.0466,0.29189 -0.16898,0.5669 -0.2185,0.85885 -0.0233,0.12813 0.0291,0.26439 0,0.39002 -0.035,0.16001 -0.10547,0.31001 -0.14567,0.46877 -0.0524,0.20251 -0.0175,0.42314 -0.0728,0.6244 -0.0717,0.26876 -0.18762,0.28502 -0.2185,0.54628 -0.0175,0.12938 0.0175,0.26126 0,0.39064 -0.0233,0.19626 -0.16781,0.35626 -0.2185,0.54627 -0.0117,0.05 0.0117,0.10563 0,0.15626 -0.0233,0.1075 -0.18296,0.32189 -0.2185,0.39064 -0.27444,0.53002 -0.4772,1.10167 -0.72787,1.63957 -0.0781,0.16814 -0.21267,0.30064 -0.29133,0.46815 -0.16082,0.10125 -0.0291,0.26751 -0.0728,0.39064 -0.16606,0.44565 -0.11246,0.05 -0.2185,0.39064 -0.0699,0.22439 -0.11595,0.48315 -0.2185,0.702665 -0.13518,0.29001 -0.31697,0.55877 -0.43642,0.85885 -0.0816,0.20438 -0.12585,0.42564 -0.2185,0.6244 -0.0635,0.13563 -0.16839,0.24814 -0.2185,0.39064 -0.0233,0.0731 0.0233,0.16001 0,0.23439 -0.0583,0.0894 -0.18121,0.27064 -0.2185,0.39064 -0.0798,0.25626 -0.18412,0.47315 -0.29133,0.70272 -0.0635,0.13688 -0.0775,0.32189 -0.14567,0.46877 -0.12585,0.56002 -0.46147,0.87329 -0.7246,1.3245 -0.0583,0.0987 -0.0827,0.2175 -0.14566,0.31251 -0.06,0.09 -0.14567,0.15626 -0.2185,0.23438 -0.0973,0.13001 -0.20219,0.25377 -0.29134,0.39065 -0.24297,0.37251 -0.47836,0.72553 -0.7278,1.09304 -0.26745,0.3944 -0.62206,0.6886 -0.87342,1.09311 -0.3933,0.63316 -0.0524,0.14751 -0.437,0.85879 -0.61518,1.1313 0.0583,-0.21063 -0.65509,0.93692 -0.0903,0.145 -0.14567,0.31251 -0.2185,0.46877 -0.12119,0.15626 -0.2587,0.29939 -0.36416,0.46877 -0.0408,0.0687 -0.0291,0.16813 -0.0728,0.23438 -0.10313,0.14751 -0.2587,0.24502 -0.36416,0.39065 -0.0635,0.0881 -0.15033,0.34626 -0.2185,0.46814 -0.21617,0.38689 -0.49643,0.72041 -0.72787,1.09311 -0.16314,0.26251 -0.26045,0.6069 -0.43641,0.85879 -0.0822,0.11751 -0.21151,0.19251 -0.29134,0.31251 -0.11478,0.17189 -0.1981,0.4894 -0.36358,0.70266 -0.27677,0.35627 -0.5847,0.66659 -0.87342,1.01498 -0.25753,0.31064 -0.42418,0.66553 -0.72786,0.93692 -0.38514,0.34439 -0.77145,0.62065 -1.16454,0.93691 -0.39679,0.31939 -0.75289,0.7206 -1.16455,1.01499 -0.5357,0.38314 -1.11319,0.68078 -1.67403,1.01498 -0.28778,0.17126 -0.47843,0.41064 -0.72784,0.6244 -0.22456,0.19251 -0.48099,0.31689 -0.72785,0.46877 -0.27898,0.17126 -0.4825,0.41377 -0.72784,0.6244 -0.14427,0.12376 -0.35577,0.12438 -0.50948,0.23439 -0.1142,0.0819 -0.17474,0.23438 -0.29116,0.31251 -0.0848,0.0562 -0.20789,0.0187 -0.29116,0.0781 -0.0728,0.05 -0.0837,0.16813 -0.14555,0.23439 -0.0619,0.0663 -0.15003,0.0975 -0.21838,0.15625 -0.32221,0.27626 -0.63115,0.5769 -0.94619,0.85885 -0.20026,0.17876 -0.45722,0.28627 -0.65506,0.46877 -0.10418,0.0956 -0.18692,0.21626 -0.29116,0.31252 -0.34383,0.31626 -0.0964,-0.004 -0.50948,0.31251 -0.0838,0.0644 -0.1346,0.17001 -0.21838,0.23439 -0.12871,0.0987 -0.545674,0.29626 -0.655064,0.39064 -0.2929,0.25126 -0.50773,0.60752 -0.80063,0.85885 -0.18581,0.15938 -0.39324,0.31626 -0.58226,0.46877 -0.14706,0.11813 -0.2552,0.0781 -0.4367,0.15626 -0.32612,0.14 -0.73427,0.42126 -1.01898,0.6244 -0.30392,0.21751 -0.26074,0.28376 -0.50948,0.39064 -0.11485,0.05 -0.25329,0.0188 -0.36393,0.0781 -0.33859,0.18188 -0.60949,0.44377 -0.9462,0.6244 -0.55697,0.29876 -0.41486,0.14813 -0.87341,0.31251 -0.49049,0.17564 -0.96978,0.4294 -1.45568,0.62441 -0.52382,0.21063 0.15936,-0.0669 -0.58226,0.0781 -0.74291,0.145 -0.15009,0.14563 -0.72784,0.23438 -0.1441,0.025 -0.29862,-0.05 -0.43671,0 -0.083,0.0312 -0.14013,0.11438 -0.21838,0.15626 -0.0868,0.0438 -0.19543,-0.0187 -0.29116,0 -0.59844,0.21376 0.15347,-0.025 -0.43671,0.0781 -0.12888,0.025 -0.23505,0.13313 -0.36393,0.15625 -0.26441,0.05 -0.53355,0.0437 -0.80063,0.0781 -0.29442,0.0375 -0.45477,0.18563 -0.72784,0.23439 -0.14357,0.025 -0.29675,-0.0438 -0.43671,0 -0.1043,0.0312 -0.1882,0.11938 -0.291157,0.15625 -1.075728,0.38439 0.136577,-0.0931 -0.582258,0.0781 -0.847702,0.20189 -0.02447,0.13313 -0.873409,0.23439 -0.357523,0.0438 -0.737485,-0.0631 -1.091763,0 -0.107036,0.0188 -0.188201,0.11938 -0.291158,0.15625 -0.240757,0.0863 -0.431697,0.0125 -0.655056,0.0781 -0.629057,0.19251 0.04312,0.13813 -0.582257,0.23439 -0.409264,0.0625 -0.830386,0.17188 -1.237331,0.23438 -0.09608,0.0125 -0.196999,-0.025 -0.291157,0 -0.10523,0.0312 -0.188201,0.11938 -0.291158,0.15626 -0.16134,0.0563 -0.823644,0.0375 -1.018983,0.0781 -0.150968,0.0312 -0.28434,0.13688 -0.436707,0.15625 -0.938802,0.11876 -1.978976,-0.14313 -2.911369,0 -0.07592,0.0125 -0.141879,0.0713 -0.218325,0.0781 -0.443058,0.0375 -0.940538,-0.0731 -1.382903,0 -0.197757,0.0312 -0.384909,0.12063 -0.582258,0.15626 -0.479417,0.0856 -1.039655,0 -1.528471,0 -1.043239,0 -2.086477,0 -3.129716,0 -0.492644,-0.13063 -0.965104,-0.26439 -1.454345,-0.39564 -0.166409,-0.0438 -0.346744,-0.0188 -0.509482,-0.0781 -0.310095,-0.11063 -0.644539,-0.34689 -0.94619,-0.46877 -0.02272,-0.006 -0.04836,0 -0.07277,0 -0.09707,-0.025 -0.199213,-0.0375 -0.291158,-0.0781 -0.513445,-0.23626 -0.988154,-0.58753 -1.528471,-0.78072 -0.04603,-0.0187 -0.09847,0.0125 -0.14555,0 -0.157902,-0.0437 -0.28434,-0.17313 -0.436707,-0.23439 -0.115834,-0.0438 -0.249031,-0.0312 -0.363933,-0.0781 -0.33847,-0.145 -0.668533,-0.35564 -1.018983,-0.46877 -0.06969,-0.025 -0.148346,0.0187 -0.218324,0 -0.314232,-0.0963 -0.626004,-0.30438 -0.946196,-0.39064 -0.08175,-0.025 -0.691834,-0.1125 -0.800629,-0.15625 -0.08192,-0.0313 -0.137101,-0.12126 -0.218325,-0.15626 -0.04487,-0.0187 -0.100509,0.0188 -0.145549,0 -0.272571,-0.11688 -0.530692,-0.34439 -0.800629,-0.46877 -0.09194,-0.0438 -0.197465,-0.0375 -0.291158,-0.0781 -0.101617,-0.0437 -0.186802,-0.12438 -0.291158,-0.15626 -0.06998,-0.0187 -0.148346,0.0188 -0.218324,0 -0.197291,-0.0625 -0.485477,-0.30939 -0.655062,-0.39064 -0.290459,-0.13813 -0.665753,-0.16188 -0.94619,-0.31251 -0.502199,-0.26939 -0.964818,-0.55815 -1.455684,-0.85885 -0.254275,-0.15564 -0.47866,-0.39377 -0.727843,-0.54628 -0.141296,-0.0869 -0.29442,-0.14938 -0.436707,-0.23438 -0.07645,-0.0437 -0.14555,-0.10376 -0.218325,-0.15626 -0.09707,-0.0781 -0.185113,-0.17126 -0.291158,-0.23438 -0.919993,-0.54815 0.27193,0.35314 -0.800623,-0.46878 -0.164894,-0.12625 -0.26855,-0.34814 -0.436707,-0.46877 -0.34354,-0.24563 -0.356883,-0.29751 -0.655056,-0.54627 -0.528885,-0.44127 -1.152494,-0.72359 -1.674032,-1.17118 -0.305899,-0.26251 -0.59556,-0.56065 -0.873415,-0.85878 -0.08577,-0.0919 -0.121311,-0.23439 -0.218325,-0.31252 -0.06135,-0.05 -0.152542,-0.0375 -0.218383,-0.0781 -0.136926,-0.0881 -0.220481,-0.31376 -0.363933,-0.39064 -0.06864,-0.0375 -0.149745,-0.0437 -0.218383,-0.0781 -0.03088,-0.0188 -0.03904,-0.0856 -0.07278,-0.0781 -0.292731,0.0625 -1.44142,0.67971 -1.601251,0.93691 -0.136927,0.22001 -0.0055,0.21564 -0.07278,0.46815 -0.03904,0.14563 -0.184064,0.24313 -0.218383,0.39064 -0.01748,0.0756 0.0268,0.16188 0,0.23438 -0.02564,0.0681 -0.11024,0.0931 -0.14555,0.15626 -0.221937,0.0563 -0.02797,0.21626 -0.07278,0.31251 -0.277232,0.59503 -0.595128,1.1353 -1.091763,1.56151 -0.381413,0.32752 -0.805127,0.54877 -1.23733,0.78072 -0.702945,0.37689 0.135761,-0.10063 -0.363933,0.0781 -0.06508,0.025 -0.0842,0.12313 -0.14555,0.15626 -0.271172,0.14563 -0.591318,0.19126 -0.873409,0.31251 -0.251828,0.10813 -0.47598,0.28251 -0.727843,0.39064 -0.04487,0.0188 -0.09847,-0.0125 -0.145549,0 -0.124399,0.0312 -0.539956,0.29189 -0.655062,0.39065 -0.08035,0.0687 -0.139257,0.16375 -0.218383,0.23438 -0.312891,0.27939 -0.108434,0.0563 -0.436707,0.23439 -0.58488,0.31376 -1.134257,0.70703 -1.674039,1.09304 -0.235688,0.16876 0.0303,-0.0125 -0.07277,0.15626 -0.0571,0.0919 -0.172295,0.13563 -0.218383,0.23439 -0.03438,0.0737 -0.03846,0.16063 -0.07278,0.23438 -0.03088,0.0656 -0.120088,0.0875 -0.14555,0.15626 -0.08833,0.23688 -0.115717,0.49127 -0.363933,0.6244 -0.08944,0.05 -0.198281,0.0375 -0.291158,0.0781 -0.09847,0.0437 -0.211099,0.25501 -0.291158,0.31251 -0.107967,0.0769 -0.379839,0.0869 -0.509482,0.15626 -0.16035,0.0863 -0.322272,0.26189 -0.509483,0.31251 -0.244369,0.0656 -0.64896,-0.002 -0.873409,0.0781 -0.102899,0.0375 -0.186802,0.12438 -0.291158,0.15626 -0.237436,0.0731 -1.656675,0.0312 -1.965173,-0.0781 -0.499227,-0.17876 -2.141813,-1.54175 -2.401874,-2.02996 -0.196358,-0.36877 -0.06089,-0.34689 -0.291158,-0.62441 -0.433037,-0.52252 -0.831166,-1.01692 -1.23733,-1.5615 -0.215412,-0.28876 -0.469104,-0.54003 -0.655056,-0.85885 -0.24705,-0.42377 -0.423772,-0.89317 -0.655056,-1.32731 -0.11123,-0.20876 -0.293779,-0.4769 -0.363932,-0.70266 -0.145201,-0.46689 0.176023,-0.001 -0.07278,-0.46814 -0.487633,-0.91535 0.05908,0.36064 -0.436708,-0.70272 -0.139373,-0.29876 -0.222636,-0.63378 -0.363933,-0.93685 -0.07091,-0.15189 -0.525214,-0.92636 -0.582257,-1.17118 -0.09993,-0.42877 0.13343,0.13001 -0.07278,-0.31251 -0.120553,-0.25876 -0.27461,-0.54878 -0.436708,-0.78073 -0.04137,-0.0563 -0.11024,-0.0931 -0.145549,-0.15625 -0.03962,-0.0706 -0.03496,-0.16251 -0.07278,-0.23439 -0.0994,-0.18626 -0.252935,-0.36814 -0.363933,-0.54627 -0.09025,-0.14501 -0.137625,-0.31689 -0.218325,-0.46877 -0.113911,-0.21376 -0.144734,-0.19314 -0.218383,-0.39064 -0.290575,-0.77929 -0.582548,-1.5622 -0.873409,-2.34229 -0.07918,-0.21251 -0.02039,-0.34939 -0.07278,-0.54628 -0.0571,-0.21376 -0.136693,-0.42002 -0.218383,-0.6244 -0.209876,-0.52502 -0.434377,-1.0408 -0.655055,-1.56151 -0.152193,-0.35939 -0.214538,-0.73253 -0.363933,-1.09304 -0.08816,-0.21251 -0.214945,-0.4069 -0.291158,-0.62441 -0.08862,-0.25376 -0.1385,-0.52377 -0.218383,-0.78072 -0.111639,-0.35939 -0.314173,-0.66446 -0.436708,-1.01498 -0.235338,-0.67315 -0.461354,-1.363 -0.727836,-2.02996 -0.524049,-1.31169 -0.02855,-0.09 -0.727842,-1.48344 -0.104355,-0.20814 -0.140947,-0.48128 -0.218383,-0.70272 -0.29075,-0.83179 -0.537043,-1.68651 -0.873409,-2.49842 -0.380481,-0.91823 -0.720938,-1.77352 -1.018977,-2.732625 -0.114785,-0.3694 -0.303744,-0.78398 -0.363933,-1.17118 -0.02331,-0.14876 0.0338,-0.32251 0,-0.46877 -0.03729,-0.16001 -0.108376,-0.30876 -0.14555,-0.46877 -0.06701,-0.28751 0,-0.63584 0,-0.93692 0,-0.90897 0.0916,-2.08271 0,-2.96688 -0.01107,-0.10688 -0.06281,-0.20563 -0.07278,-0.31251 -0.02913,-0.31064 0.03846,-0.62734 0,-0.93692 -0.02972,-0.23751 -0.116008,-0.46502 -0.145549,-0.70272 -0.01923,-0.155 0.01224,-0.31251 0,-0.46877 -0.01224,-0.1575 -0.06054,-0.31063 -0.07278,-0.46877 -0.08151,-1.04954 0,-2.1484 0,-3.20107 0,-2.1601 0,-4.32019 0,-6.48029 0,-0.43064 -0.14555,-0.83491 -0.14555,-1.24924"
     id="path12" /><path
     style="fill:none;stroke:#000000;stroke-width:1.59669;stroke-opacity:1"
     d="m 49.547398,120.89899 c -0.377567,-0.85417 -1.150076,-1.25556 -1.601263,-2.02997 -0.385899,-0.66234 0.06106,0.0375 -0.218325,-0.6244 -0.208594,-0.49252 -0.549336,-0.86516 -0.800634,-1.32731 -0.136752,-0.25126 -0.220131,-0.53377 -0.363933,-0.78078 -0.347618,-0.59628 -0.679603,-1.16499 -1.091757,-1.71764 -0.414683,-0.55627 -0.04312,-0.0375 -0.363933,-0.31251 -0.214363,-0.18376 -0.373896,-0.43315 -0.582257,-0.62441 -0.148464,-0.13688 -0.353037,-0.18625 -0.509483,-0.31251 -0.164719,-0.1325 -0.278572,-0.32689 -0.436708,-0.46877 -0.425054,-0.38002 -0.886164,-0.71403 -1.310111,-1.09305 -0.187909,-0.16813 -0.68381,-0.80728 -0.727854,-0.85885 -0.174275,-0.20376 -0.410954,-0.33939 -0.582257,-0.54627 -0.291158,-0.35127 -0.218325,-0.41002 -0.436708,-0.70272 -0.514202,-0.68953 -1.010912,-1.38806 -1.382892,-2.1861 -0.116824,-0.25063 -0.183015,-0.52564 -0.291158,-0.78078 -0.131216,-0.31001 -0.326234,-0.62128 -0.436707,-0.93692 -0.0169,-0.05 0.01107,-0.10563 0,-0.15625 -0.196999,-0.95098 -0.09865,-0.16689 -0.218325,-0.93692 -0.0402,-0.25689 0.0303,-0.52252 0,-0.78072 -0.02214,-0.18813 -0.107269,-0.36189 -0.14555,-0.54627 -0.05302,-0.25564 -0.02913,-0.52378 -0.07278,-0.78079 -0.04545,-0.26751 -0.165302,-0.51502 -0.218382,-0.78072 -0.123933,-0.62065 -0.247575,-1.24987 -0.363933,-1.873835 -0.02739,-0.14813 -0.09864,-0.69135 -0.14555,-0.85885 -0.112862,-0.40377 -0.209585,-0.42127 -0.291158,-0.85885 -0.01923,-0.10188 0,-0.20814 0,-0.31252 -0.04836,-0.18188 -0.09358,-0.36564 -0.14555,-0.54627 -0.0902,-0.31439 -0.216693,-0.61753 -0.291157,-0.93685 -0.05302,-0.22689 -0.07755,-0.62547 -0.14555,-0.85885 -0.08466,-0.29064 -0.210983,-0.56628 -0.291158,-0.85885 -0.07044,-0.25689 -0.100219,-0.86635 -0.14555,-1.09305 -0.03205,-0.16126 -0.108376,-0.30877 -0.14555,-0.46877 -0.159941,-0.68641 -0.219315,-1.41456 -0.291158,-2.10803 -0.03379,-0.32564 0,-0.68647 0,-1.01498 0,-0.78141 -0.01748,-1.56939 0.07278,-2.34229 0.0093,-0.0819 0.06584,-0.15251 0.07278,-0.23439 0.0437,-0.51627 -0.0402,-1.04473 0,-1.56151 0.03729,-0.48064 0.181034,-0.92491 0.218325,-1.40537 0.07679,-0.98798 0.0015,-1.97834 0.07278,-2.96688 0.0402,-0.5569 0.227647,-1.0948 0.291099,-1.63957 0.03904,-0.33314 -0.03904,-0.68184 0,-1.01498 0.06427,-0.55128 0.198398,-1.18493 0.363933,-1.7177 0.0169,-0.0563 0.0638,-0.0988 0.07278,-0.15626 0.110532,-0.71153 -0.159942,0.12938 0.07278,-0.70272 0.212381,-0.75941 0.100218,-0.0188 0.218383,-0.78072 0.07033,-0.45252 0.16437,-0.94223 0.218325,-1.40537 0.05768,-0.49315 0,-1.07099 0,-1.56151 0,-0.4819 -0.08862,-1.2418 0,-1.7177 0.07569,-0.40627 0.04836,-0.0781 0.145549,-0.39064 0.07505,-0.24126 0.09911,-0.53128 0.14555,-0.78072 0.11933,-0.63978 0.1378,-1.11149 0.363933,-1.7177 0.03554,-0.0944 0,-0.28939 0,-0.39002 0,-0.45877 -0.13646,-1.64939 0.14555,-1.9519"
     id="path13" /><path
     style="fill:none;stroke:#000000;stroke-width:1.59669;stroke-opacity:1"
     d="m 76.84145,75.302675 c 0.520146,0.71009 0.784489,1.41781 1.528471,1.87383 0.30118,0.18438 0.649783,0.30939 0.94619,0.46877 0.108551,0.0563 0.244254,-0.0188 0.363933,0 0.05361,0.0125 0.09294,0.0637 0.14555,0.0781 0.269133,0.0719 0.595006,0.10188 0.873409,0.15625 0.215295,0.0438 1.160407,0.32377 1.382898,0.23439 0.883845,-0.35564 1.15863,-0.81029 1.674044,-1.63957 0.176082,-0.28314 0.416781,-0.51065 0.509483,-0.85885 0.06293,-0.23564 0.02272,-0.54003 0.07277,-0.78072 0.126439,-0.61003 0.314815,-1.24156 0.363933,-1.87384 0.09556,-1.22999 -0.01573,-2.52286 -0.07277,-3.74766 -0.01573,-0.33814 0.02855,-0.67803 0,-1.01498 -0.01107,-0.13188 -0.06042,-0.25814 -0.07278,-0.39064 -0.02447,-0.25877 0.0268,-0.5219 0,-0.78073 -0.112221,-1.08379 -0.4719,-2.12046 -0.655055,-3.20114 -0.06031,-0.35564 -0.07091,-0.73303 -0.14555,-1.09304 -0.0712,-0.34377 -0.200903,-0.67616 -0.291158,-1.01499 -0.05477,-0.20625 -0.06677,-0.42751 -0.14555,-0.6244 -0.03438,-0.0863 -0.111172,-0.14813 -0.145549,-0.23438 -0.03962,-0.0988 -0.03787,-0.21189 -0.07277,-0.31252 -0.327575,-0.93691 -0.713888,-1.85883 -1.38291,-2.57648 -0.427734,-0.45877 -1.066784,-0.62003 -1.601251,-0.85885 -0.150153,-0.0669 -0.280204,-0.18626 -0.436708,-0.23439 -0.188084,-0.0562 -0.388405,-0.05 -0.582257,-0.0781 -0.292557,-0.0437 -0.579461,-0.1275 -0.87341,-0.15626 -0.450458,-0.0437 -0.929363,0 -1.382898,0 -0.921928,0 -1.843867,0 -2.765801,0 -0.252003,0 -0.6892,-0.0787 -0.94619,0 -0.697975,0.21376 -1.256897,0.4144 -1.965167,0.54628 -0.425287,0.0794 -1.018114,0.12438 -1.45569,0.31251 -0.162447,0.0694 -0.280204,0.22814 -0.436708,0.31252 -0.454828,0.24376 -0.872366,0.49877 -1.310111,0.78078 -0.303277,0.19501 -0.39429,0.16251 -0.727854,0.39002 -0.262083,0.17875 -0.508142,0.38876 -0.727836,0.6244 -0.08571,0.0919 -0.132556,0.22001 -0.218383,0.31251 -0.604568,0.64853 -1.404847,1.09455 -1.965173,1.79577 -0.148463,0.18563 -0.244428,0.41939 -0.363933,0.6244 -0.504122,0.86523 -0.129351,0.10313 -0.800617,1.32731 -0.0825,0.15063 -0.128128,0.32314 -0.218383,0.46877 -0.105112,0.16938 -0.253809,0.30314 -0.363932,0.46877 -0.133023,0.20001 -0.230911,0.42502 -0.363933,0.6244 -0.297159,0.44627 -0.383918,0.39752 -0.582257,0.85885 -0.172178,0.40002 -0.238369,0.76704 -0.363933,1.17112 -0.182491,0.58752 -0.116533,0.22188 -0.363933,0.85885 -0.15866,0.40814 -0.173809,0.65246 -0.291099,1.09305 -0.08431,0.31626 -0.210401,0.6194 -0.291158,0.93691 -0.153241,0.60253 -0.182841,1.26381 -0.291158,1.87383 -0.04195,0.23564 -0.12335,0.46377 -0.14555,0.70266 -0.09684,1.03898 0,2.36085 0,3.43534 0,1.58757 0,3.17507 0,4.76264 0,0.79654 -0.06165,1.6262 0,2.42036 0.04428,0.56815 0.186919,1.15855 0.291158,1.71764 0.196766,1.05542 0.775178,2.3611 1.310111,3.2792 0.128594,0.22064 0.318893,0.3969 0.436708,0.62441 0.06351,0.1225 0.08291,0.26751 0.14555,0.39064 0.272803,0.53627 0.647317,1.04054 0.946196,1.5615 0.369759,0.64453 0.700468,1.32231 1.091769,1.9519 0.06724,0.10813 0.164078,0.19626 0.218324,0.31252 0.116825,0.25063 0.174275,0.53002 0.291158,0.78072 0.179927,0.38626 0.560641,0.60565 0.800635,0.93691 0.173692,0.23939 0.266919,0.53815 0.436707,0.78079 0.401282,0.57377 0.902024,1.07673 1.310112,1.63957 0.08682,0.12 0.124399,0.27689 0.218324,0.39064 0.450167,0.54315 1.298878,1.05899 1.892392,1.48344 0.345579,0.24689 0.527778,0.45565 0.873415,0.70266 0.675234,0.483145 1.473351,0.760975 2.183521,1.171175 0.402971,0.23251 0.741978,0.5794 1.164538,0.78072 0.509483,0.24314 1.12712,0.57253 1.674044,0.70272 0.935638,0.22314 1.909826,0.29752 2.838582,0.54628 0.850092,0.22813 1.745444,0.44252 2.620229,0.54627 0.390618,0.0437 0.773266,0.18188 1.164549,0.23439 0.391843,0.05 0.849579,0 1.237319,0 0.679318,0 1.358642,0 2.037965,0 0.776367,0 1.552716,0 2.329082,0 0.329032,0 0.699382,0.0625 1.018972,0 0.25574,-0.05 0.38165,-0.12688 0.58226,-0.23439"
     id="path14" /><path
     style="fill:none;stroke:#000000;stroke-width:1.59669;stroke-opacity:1"
     d="m 18.468557,80.221445 c -0.164953,-1.28805 -0.716999,-2.52511 -0.800618,-3.82566 -0.07155,-1.11211 0.08635,-2.24635 0,-3.35727 -0.03496,-0.44565 -0.303918,-1.73783 -0.363932,-2.10803 -0.148638,-0.91648 -0.110066,-1.96828 -0.07278,-2.88882 0.04953,-1.22161 0.405593,-2.3911 0.582257,-3.59153 0.113911,-0.77447 0.10453,-1.56907 0.218383,-2.34223 0.09031,-0.61315 0.262607,-1.17999 0.363933,-1.79576 0.02098,-0.12814 -0.01981,-0.26189 0,-0.39065 0.09725,-0.62565 0.382869,-1.23886 0.436708,-1.87383 0.01398,-0.15563 -0.02622,-0.31501 0,-0.46814 0.06491,-0.38252 0.438397,-1.14399 0.582257,-1.48351 0.189483,-0.44689 0.2541,-0.95479 0.436708,-1.40531 0.181733,-0.44877 0.404661,-0.87697 0.582257,-1.32731 0.845296,-2.14322 -0.328681,0.5294 0.436708,-1.24924 0.191697,-0.44564 0.415557,-0.8381 0.655055,-1.24918 0.162855,-0.13875 0.12335,-0.37627 0.218383,-0.54627 0.03554,-0.0631 0.114844,-0.09 0.14555,-0.15626 0.02156,-0.0437 -0.01398,-0.10625 0,-0.15626 0.07184,-0.26938 0.208478,-0.51502 0.291158,-0.78072 0.05594,-0.18001 0.07598,-0.37251 0.14555,-0.54627 0.188492,-0.4719 0.528477,-0.86066 0.727848,-1.32731 0.231959,-0.54252 0.327982,-1.02604 0.509482,-1.56151 0.130284,-0.38439 0.266278,-0.80553 0.436708,-1.17111 0.06322,-0.13563 0.165826,-0.24939 0.218324,-0.39064 0.04603,-0.12313 0.03962,-0.26251 0.07278,-0.39064 0.135645,-0.52378 0.25311,-1.05505 0.436708,-1.56151 0.231901,-0.63965 0.555105,-1.24174 0.800635,-1.87383 0.247341,-0.63684 0.400873,-1.31575 0.655055,-1.9519 0.07551,-0.18938 0.222403,-0.36252 0.291158,-0.54627 0.01806,-0.05 -0.01515,-0.10688 0,-0.15626 0.09818,-0.31626 0.241165,-0.62972 0.363933,-0.93692 0.317611,-0.79491 -0.223802,0.44377 0.145549,-0.54627 0.08233,-0.22064 0.35496,-0.26626 0.509483,-0.39064 0.09713,-0.0781 0.205331,-0.14251 0.291158,-0.23439 0.03846,-0.0437 0.03438,-0.115 0.07278,-0.15625 0.0169,-0.0188 0.05244,0.0125 0.07278,0 0.0754,-0.0563 0.94619,-0.77879 0.94619,-0.85886"
     id="path15" /><path
     style="fill:none;stroke:#000000;stroke-width:1.59669;stroke-opacity:1"
     d="m 38.265851,66.323965 c 0,-0.15626 -0.0303,-0.31564 0,-0.46877 0.0437,-0.21751 0.161398,-0.41064 0.218383,-0.6244 0.113444,-0.42565 0.125506,-0.89542 0.218324,-1.32731 0.126264,-0.5869 0.197291,-0.62378 0.363933,-1.24918 0.105928,-0.39752 0.07709,-0.61065 0.218383,-1.01498 0.130109,-0.37189 0.307938,-0.71328 0.436708,-1.09311 0.155921,-0.46002 0.256139,-0.96261 0.436707,-1.40531 0.304035,-0.74547 0.714948,-1.44069 1.018971,-2.18616 0.207487,-0.50877 0.33614,-1.23362 0.582257,-1.71764 0.07429,-0.14626 0.221646,-0.24126 0.291158,-0.39064 0.162214,-0.60878 0.09247,-0.4744 0.363933,-1.01498 0.307006,-0.61191 0.741814,-1.17137 1.018971,-1.79577 0.1452,-0.32751 0.230794,-0.68178 0.363933,-1.01498 0.301004,-0.75341 0.727201,-1.43494 1.018988,-2.1861 0.05902,-0.15188 0.08204,-0.31876 0.14555,-0.46877 0.404486,-0.95454 1.086047,-2.1259 1.674026,-2.96688 0.206905,-0.29564 0.448186,-0.56315 0.655062,-0.85885 0.08495,-0.12125 0.145549,-0.26001 0.218383,-0.39064 0.07278,-0.15626 0.122534,-0.32751 0.218383,-0.46877 0.266219,-0.39252 0.781866,-0.8891 1.091751,-1.24918 0.496373,-0.5769 0.862823,-1.23787 1.38291,-1.79577 0.109949,-0.11813 0.247807,-0.20188 0.363932,-0.31251 0.427968,-0.40814 0.74273,-0.83604 1.237331,-1.17111 0.663149,-0.4494 1.262012,-0.80723 1.819594,-1.40538 0.1956,-0.21001 0.313881,-0.49314 0.509482,-0.70265 0.123642,-0.13251 0.302287,-0.19189 0.436708,-0.31252 0.456576,-0.40814 0.889106,-0.81797 1.382909,-1.17111 0.417538,-0.29876 0.754062,-0.70678 1.164538,-1.01498 0.544559,-0.40877 0.170197,-0.0781 0.655068,-0.39065 0.404719,-0.26063 0.815113,-0.55439 1.237318,-0.78078"
     id="path16" /><path
     style="fill:none;stroke:#000000;stroke-width:1.59669;stroke-opacity:1"
     d="m 27.566578,35.874385 c 0.254217,-0.33877 0.41276,-0.74654 0.655061,-1.09305 0.08233,-0.11751 0.217451,-0.18813 0.291158,-0.31251 0.09911,-0.16751 0.13075,-0.3719 0.218383,-0.54628 0.13413,-0.26751 0.294129,-0.51877 0.436708,-0.78072 0.356416,-0.6554 0.716876,-1.30849 1.091769,-1.9519 0.09264,-0.15938 0.212906,-0.30064 0.291099,-0.46877 0.200962,-0.43127 0.330721,-0.92254 0.582258,-1.32731 0.105112,-0.16938 0.246875,-0.30876 0.363932,-0.46877 0.278806,-0.38064 0.494508,-0.81541 0.800635,-1.17111 0.303452,-0.35252 0.691157,-0.61065 1.018971,-0.93692 0.326875,-0.32564 0.644806,-0.66228 0.946196,-1.01498 0.526438,-0.61628 1.005657,-1.27605 1.45569,-1.9519 0.200437,-0.30126 0.546423,-0.45252 0.800617,-0.70272 0.08944,-0.0881 0.138441,-0.21438 0.218383,-0.31251 0.09031,-0.11063 0.206846,-0.19626 0.291158,-0.31251 0.08682,-0.12001 0.14555,-0.26001 0.218383,-0.39064 0.09713,-0.15626 0.18185,-0.32189 0.291158,-0.46878 0.870006,-1.16655 -0.325477,0.63628 0.582257,-0.70265 0.10284,-0.15188 0.173459,-0.32939 0.291158,-0.46877 0.127487,-0.15063 0.291158,-0.26001 0.436707,-0.39064 0.194086,-0.20814 0.402506,-0.4019 0.582258,-0.62441 0.136751,-0.16938 0.230327,-0.37439 0.363933,-0.54627 0.364573,-0.4694 0.754738,-0.84529 1.091757,-1.32731 0.573284,-0.819972 1.126519,-1.659383 1.674027,-2.49842 0.178179,-0.273137 0.415498,-0.499397 0.582257,-0.780784 0.0874,-0.147507 0.115309,-0.33314 0.218383,-0.468146 0.119912,-0.157507 0.292323,-0.258761 0.436708,-0.390642 0.340859,-0.310639 0.688617,-0.613152 1.018988,-0.936916 0.481398,-0.471271 0.902333,-1.010919 1.382892,-1.48344 0.385491,-0.379392 1.005517,-0.629653 1.45569,-0.936916 0.745491,-0.5087717 1.494507,-1.0067317 2.256307,-1.4834397 0.777398,-0.486271 0.114377,0.05625 1.091752,-0.624402 0.2037,-0.141257 0.382811,-0.320015 0.582257,-0.468146 0.96363,-0.715656 2.054088,-1.228366 3.056936,-1.873832 0.448711,-0.288763 0.841841,-0.68578 1.310111,-0.936916 0.556795,-0.298763 1.196434,-0.407518 1.746813,-0.702656 0.108551,-0.05625 0.185113,-0.171257 0.291158,-0.234385 0.376926,-0.224385 0.767056,-0.326264 1.16455,-0.468771 0.396853,-0.141881 0.772544,-0.393767 1.16455,-0.546274 0.28201,-0.110004 0.586575,-0.139381 0.873398,-0.234385 0.366962,-0.121255 0.720821,-0.376266 1.091769,-0.468145 0.19059,-0.05 0.390152,-0.0375 0.582257,-0.07813 0.631097,-0.128755 1.261733,-0.34564 1.892386,-0.46877 0.16705,-0.03125 0.343715,0.0375 0.509483,0 0.149861,-0.0375 0.286671,-0.121881 0.436707,-0.156257 0.527604,-0.121256 1.071201,-0.190634 1.601246,-0.312514 0.547298,-0.12563004 0.556912,-0.19000804 1.091758,-0.23438504 0.454595,-0.0375 0.926799,0 1.382909,0 0.970441,0 1.940905,0 2.911363,0 1.091751,0 2.183526,0 3.275278,0 0.52941,0 1.073194,-0.0375 1.601252,0 0.941371,0.0675 1.863264,0.45002004 2.765801,0.70265604 0.886315,0.248135 1.861091,-0.0125 2.765801,0.07813 0.586855,0.05625 1.105695,0.250011 1.674033,0.390642 0.361602,0.08938 0.728867,0.150632 1.091751,0.234385 0.339694,0.07813 0.676346,0.173133 1.018994,0.234386 0.234698,0.04375 0.495033,0.025 0.727834,0.07813 0.15651,0.03125 0.16822,0.190633 0.29116,0.234385 0.57363,0.205009 1.1576,0.33314 1.67403,0.702656"
     id="path17" /><path
     style="fill:none;stroke:#000000;stroke-width:1.59669;stroke-opacity:1"
     d="m 58.499846,34.234815 c 0.339636,-0.23439 0.668393,-0.48753 1.018971,-0.70266 0.560874,-0.34377 1.227868,-0.44877 1.819612,-0.70272 0.08122,-0.0375 0.136401,-0.12313 0.218324,-0.15626 0.70661,-0.28438 1.977059,-0.45377 2.693009,-0.6244 0.706779,-0.16813 1.397197,-0.40314 2.110746,-0.54627 0.688017,-0.13813 1.359719,-0.26626 2.037948,-0.46877 0.558018,-0.16626 1.100159,-0.36002 1.674032,-0.46877 1.70898,-0.32377 -0.643298,0.21438 1.23733,-0.23439 0.772591,-0.18438 1.546983,-0.33939 2.3291,-0.46877 0.244545,-0.0375 0.481922,-0.12688 0.727842,-0.15626 0.313474,-0.0375 0.630788,0 0.94619,0 0.752105,0 1.504203,0 2.256308,0 0.630805,0 1.261598,0 1.892386,0 0.194202,0 0.741773,-0.05 0.946196,0 0.105928,0.025 0.190415,0.11313 0.291157,0.15626 0.293314,0.12563 0.841899,0.0763 1.16455,0.15626 0.439563,0.10875 0.875723,0.25688 1.310112,0.39064 0.439446,0.13501 0.952809,0.15876 1.382891,0.31251 0.154407,0.0563 0.286497,0.16689 0.436708,0.23439 0.330954,0.14813 0.542403,0.16438 0.873398,0.31251 0.469395,0.21001 0.840763,0.57128 1.310129,0.78079 0.417421,0.18626 0.843701,0.23376 1.237321,0.46877 0.45459,0.27063 0.91371,0.70265 1.45569,0.70265"
     id="path18" /><path
     style="fill:none;stroke:#000000;stroke-width:1.59669;stroke-opacity:1"
     d="m 89.141976,2.5359843 c 0.0484,0.10438 0.0735,0.22501 0.14555,0.312514 0.44218,0.533773 1.09419,0.952104 1.60125,1.405374 0.61161,0.546899 1.18097,1.125799 1.81961,1.639572 0.40425,0.325014 0.54018,0.336264 0.94619,0.702718 0.35455,0.320014 0.63925,0.729844 1.01898,1.014982 0.1875,0.140631 0.40087,0.240636 0.58225,0.390642 0.61949,0.511272 0.0981,0.272512 0.72784,0.702656 0.40722,0.278137 0.88695,0.453145 1.31013,0.702718 0.61977,0.365641 1.18693,0.8317867 1.81959,1.1711137 0.35059,0.188133 0.73494,0.294388 1.091774,0.468771 1.4181,0.691467 -0.330084,-0.0625 0.94619,0.624402 0.0894,0.05 0.20032,0.03125 0.29116,0.07813 0.20405,0.101255 0.87022,0.508148 1.09176,0.702656 0.38106,0.33439 0.72706,0.737407 1.09177,1.093048 0.62254,0.606902 1.35582,1.100361 1.96516,1.7177 0.45396,0.46002 0.92847,1.093736 1.31011,1.639572 0.18978,0.271262 0.29571,0.608772 0.50949,0.858852 0.17427,0.20376 0.39988,0.35064 0.58225,0.54627 0.35164,0.37689 0.56997,0.90879 0.87342,1.32731 0.25323,0.34939 0.54736,0.66565 0.80063,1.01498 0.19729,0.18563 0.21407,0.48815 0.36393,0.70266 0.0822,0.1175 0.20859,0.19438 0.29133,0.31251 0.21559,0.30876 0.35135,0.71241 0.58209,1.01498 0.96506,1.26531 -0.11479,-0.47752 0.87341,1.17112 0.6985,1.16561 1.33961,2.3836 1.96516,3.59153 0.1276,0.24626 0.3193,0.45064 0.43641,0.70265 0.21326,0.4569 -0.0408,0.16814 0.14567,0.46877 0.23132,0.37252 0.50692,0.71335 0.72781,1.09305 0.0583,0.0988 0.0827,0.21751 0.14566,0.31252 0.45273,0.67959 -0.035,-0.34627 0.50925,0.6244 0.37815,0.67628 -0.0728,0.1175 0.29133,0.70265 0.24123,0.38815 0.51858,0.81798 0.80059,1.17118 0.0891,0.11188 0.21267,0.19188 0.29133,0.31251 0.0932,0.14314 0.14042,0.31502 0.2185,0.46815 0.21908,0.43127 0.52265,0.80972 0.72781,1.24924 0.37057,0.79516 -0.10838,-0.0125 0.36416,0.78079 0.2925,0.49314 0.58092,0.99066 0.87342,1.48344 0.21384,0.36064 0.26045,0.28626 0.437,0.70265 0.12702,0.30001 0.18645,0.62753 0.29133,0.93692 0.31289,0.92273 -0.0466,-0.19626 0.36416,0.85885 0.0588,0.15188 0.0769,0.32126 0.14567,0.46877 0.21093,0.45252 0.51508,0.87085 0.72787,1.32724 0.18354,0.39315 0.26394,0.84835 0.437,1.24925 0.27851,0.64765 0.53838,1.29555 0.80058,1.95189 0.17946,0.44877 0.27094,0.94786 0.43641,1.40538 0.16198,0.44564 0.40146,0.8631 0.50925,1.32731 0.0175,0.0756 -0.0117,0.1575 0,0.23438 0.06,0.38752 0.12819,0.78304 0.2185,1.17112 0.0233,0.10437 0.0466,0.20813 0.0728,0.31251 0,0.10438 -0.0233,0.21063 0,0.31251 0.0291,0.13688 0.10954,0.25564 0.14566,0.39064 0.0973,0.3644 0.20335,0.79391 0.29133,1.17118 0.0117,0.05 -0.0175,0.10688 0,0.15626 0.11013,0.35501 0.32805,0.66471 0.437,1.01498 0.0653,0.21063 0.1614,0.41064 0.2185,0.6244 0.0175,0.075 -0.0291,0.16251 0,0.23439 0.0466,0.11938 0.15616,0.20063 0.2185,0.31251 0.12061,0.21564 0.19753,0.70216 0.29134,0.93692 0.0117,0.0312 0.0618,0.0437 0.0728,0.0781 0.0175,0.05 -0.0175,0.10688 0,0.15625 0.32571,1.04824 -0.0291,-0.31001 0.29133,0.54628 0.0175,0.05 -0.0175,0.10813 0,0.15625 0.035,0.0869 0.12411,0.14313 0.14567,0.23439 0.0757,0.32626 -0.57043,-0.14376 -0.65509,-0.23439"
     id="path19" /><path
     style="fill:none;stroke:#000000;stroke-width:1.59669;stroke-opacity:1"
     d="m 88.850836,32.751375 c 0.16984,0.13 0.33963,0.26001 0.50948,0.39064 0.0971,0.10438 0.18401,0.22001 0.29116,0.31251 0.13658,0.11751 0.30666,0.18688 0.43671,0.31251 0.26808,0.25877 0.47283,0.58503 0.72783,0.85885 0.26686,0.28627 0.52009,0.58816 0.80064,0.85886 0.0902,0.0869 0.20533,0.1425 0.29115,0.23438 0.20137,0.21626 0.3182,0.55002 0.50949,0.78078 0.27286,0.32939 0.59715,0.61066 0.87341,0.93686 0.12749,0.15063 0.22992,0.32501 0.36394,0.46877 0.96505,1.03523 -0.26185,-0.4769 0.72783,0.70272 0.45716,0.54502 0.11642,0.26063 0.65506,0.78072 0.16624,0.16063 0.39441,0.26251 0.50948,0.46877 0.0396,0.0706 0.0332,0.16376 0.0728,0.23438 0.14677,0.26252 0.39971,0.46752 0.58226,0.70266 0.1893,0.24376 0.31854,0.5419 0.50948,0.78078 0.28923,0.3619 0.58062,0.7341 0.8734,1.09305 0.57538,0.70541 1.23934,1.32969 1.81961,2.02997 0.1033,0.12438 0.17503,0.27938 0.29116,0.39064 0.10575,0.10063 0.25077,0.14313 0.363934,0.23438 0.40186,0.32314 0.63896,0.83723 0.94619,1.24918 0.12737,0.17064 0.31446,0.29377 0.43671,0.46877 0.12946,0.18501 0.252,0.4244 0.36393,0.62441 0.19327,0.34564 0.24565,0.79053 0.36393,1.17117 0.15505,0.49877 0.37302,1.11255 0.58226,1.56151 0.19379,0.41564 0.44708,0.76959 0.65505,1.17111 0.41737,0.80591 0.0734,0.31377 0.21839,0.70272 0.0649,0.17438 0.20434,0.30564 0.2911,0.46815 0.22106,0.41501 0.43432,0.83485 0.65507,1.24924 0.14567,0.27376 0.0882,0.56315 0.2911,0.78078"
     id="path20" /><path
     style="fill:none;stroke:#000000;stroke-width:1.59669;stroke-opacity:1"
     d="m 125.75242,55.237235 c 0.0973,0.49439 0.24064,0.98104 0.29133,1.48344 0.0466,0.46564 0,0.93691 0,1.40531 0,0.88491 0,1.76976 0,2.65461 0,2.10803 0,4.21613 0,6.32416 0,0.88485 0,1.7697 0,2.65455 0,0.36439 -0.0583,0.80947 0,1.17118 0.0117,0.0562 0.0623,0.0987 0.0728,0.15625 0.0291,0.15313 -0.0233,0.31439 0,0.46877 0.0175,0.10938 0.12877,0.28127 0.14567,0.39064 0.0699,0.45002 -0.035,0.95061 0,1.40538 0.0117,0.18313 0.0594,0.36314 0.0728,0.54627 0.0408,0.56565 0,1.14924 0,1.71764 0,1.06705 0,2.13409 0,3.20114"
     id="path21" /><path
     style="fill:none;stroke:#000000;stroke-width:1.59669;stroke-opacity:1"
     d="m 104.86334,53.831855 c 0,0.65434 -0.0239,0.91167 0.0728,1.56151 0.19909,1.33499 0.52707,2.66136 0.80061,3.98186 0.0817,0.39439 0.22922,0.7726 0.29116,1.17111 0.0326,0.20814 -0.0192,0.41627 0,0.62441 0.0245,0.26376 0.12656,0.51627 0.14555,0.78072 0.0455,0.63534 0,1.3985 0,2.03002 0,1.06699 0,2.13403 0,3.20108 0,0.93692 0,1.87383 0,2.81075 0,0.39002 0.0425,0.78341 0,1.17111 -0.0771,0.70328 -0.17509,0.56753 -0.21838,1.17112 -0.0466,0.64615 0.0548,1.30662 0,1.9519 -0.0111,0.13188 -0.0604,0.25813 -0.0728,0.39064 -0.0768,0.82416 0.0548,1.67207 0,2.49842 -0.0122,0.18376 -0.0627,0.36314 -0.0728,0.54627 -0.0707,1.29087 0,2.6093 0,3.9038 0,0.33314 0.0309,0.68447 0,1.01504 -0.0373,0.40065 -0.1656,0.77485 -0.21833,1.17112 -0.0111,0.0769 0.021,0.15938 0,0.23438 -0.18907,0.67616 -0.54298,1.30706 -0.80063,1.9519 -0.0817,0.20438 -0.12562,0.42564 -0.21833,0.6244 -0.27187,0.58315 -0.7951,1.27343 -1.01899,1.87384 -0.0181,0.05 0.0169,0.1075 0,0.15625 -0.32909,0.94142 -0.0896,0.11438 -0.36393,0.70266 -0.18721,0.40189 -0.34698,0.79253 -0.58226,1.17117 -0.29361,0.47252 -0.1406,0.17251 -0.50948,0.62441 -0.27019,0.33126 -0.39289,0.75559 -0.65506,1.09304 -0.066,0.085 -0.15854,0.14439 -0.21838,0.23439 -0.20364,0.30564 -0.30351,0.71116 -0.50948,1.01498 -0.42075,0.62065 -0.817584,0.79441 -1.382904,1.24918 -0.16472,0.13251 -0.2654,0.34627 -0.4367,0.46877 -0.21011,0.15063 -0.59053,0.24001 -0.80064,0.39064 -0.11426,0.0819 -0.17946,0.22689 -0.29116,0.31252 -0.21261,0.16313 -0.4941,0.18688 -0.72783,0.31251 -0.42296,0.22689 -0.28935,0.20689 -0.65506,0.46815 -0.2171,0.155 -0.54636,0.19563 -0.72785,0.39064 -0.20673,0.22188 -0.31452,0.60878 -0.58226,0.78078 -0.0931,0.0625 -0.20644,0.0838 -0.29116,0.15626 -0.008,0.006 -1.40754,1.31925 -1.45568,1.40531 -0.0396,0.0706 -0.0332,0.16376 -0.0728,0.23439 -0.13075,0.23376 -0.39511,0.379395 -0.58226,0.546275 -0.22916,0.20501 -0.33386,0.52502 -0.58225,0.70266 -0.12767,0.0913 -0.31686,0.0563 -0.43671,0.15625 -0.0683,0.0563 -0.091,0.16064 -0.14555,0.23439 -0.52353,0.70197 0.18429,-0.27564 -0.29116,0.23438 -0.10669,0.11438 -0.12749,0.33877 -0.21832,0.46877 -0.0788,0.11251 -0.21775,0.19439 -0.29116,0.31252 -0.2946,0.47377 0.20952,-0.24439 -0.14555,0.39064 -0.0929,0.16626 -0.26343,0.30689 -0.36394,0.46877 -0.014,0.0187 0.0192,0.0625 0,0.0781 -0.34458,0.27751 -0.85559,0.37127 -1.16453,0.70272"
     id="path22" /><path
     style="fill:#e38aea;fill-opacity:1;stroke:#000000;stroke-width:0.301534;stroke-opacity:1"
     d="m 71.600985,131.01717 c -2.098027,-0.14255 -3.177788,-0.38712 -4.472237,-1.01318 -0.938548,-0.45393 -2.510692,-1.0961 -3.493639,-1.42705 -2.95849,-0.99605 -5.971524,-2.44565 -7.712384,-3.71049 -3.690521,-2.68139 -4.320819,-3.20463 -5.598171,-4.64735 -0.733479,-0.82843 -1.888457,-2.53012 -2.566622,-3.78156 -0.678166,-1.25145 -1.715702,-2.72332 -2.305624,-3.27085 -4.241131,-3.93635 -6.458619,-7.24608 -6.458619,-9.63987 0,-0.49418 -0.597075,-3.4631 -1.326839,-6.597585 -1.300816,-5.58732 -1.323309,-5.76947 -1.147701,-9.29055 0.214225,-4.29552 0.897185,-10.6603 1.306705,-12.17777 0.161934,-0.60005 0.294422,-1.79344 0.294422,-2.65197 0,-1.92652 0.637836,-6.40688 0.912093,-6.40688 0.110689,0 0.293481,-0.5854 0.406159,-1.3009 0.369561,-2.34641 2.914831,-9.27516 4.238402,-11.53783 0.240172,-0.41057 0.879072,-1.8005 1.4198,-3.08875 1.696585,-4.04207 5.11698,-8.90767 7.496325,-10.66372 0.691901,-0.51065 1.485165,-1.17253 1.762798,-1.47083 1.400652,-1.50499 3.679189,-3.26805 4.321234,-3.34364 0.398174,-0.047 0.881476,-0.21662 1.07398,-0.37716 0.658464,-0.54914 3.262285,-1.33525 8.536975,-2.5774 4.635373,-1.09161 5.731322,-1.24236 9.031084,-1.24236 3.985882,0 6.813503,0.5858 9.058864,1.87674 0.594732,0.34192 1.190266,0.62168 1.323406,0.62168 0.54916,0 2.27448,1.73497 5.29813,5.32772 1.76138,2.09291 4.27435,5.05675 5.58439,6.58633 1.41423,1.65124 2.523024,3.25342 2.729304,3.94377 0.19108,0.63949 0.81136,2.07621 1.37842,3.19268 1.15402,2.27216 2.30775,6.98106 2.59093,10.5748 0.10036,1.27428 0.0159,6.4782 -0.18789,11.56427 l -0.37049,9.24743 -1.04122,2.34228 c -2.34615,5.27782 -4.182094,7.66234 -7.300924,9.4825 -0.98649,0.57573 -5.26888,4.820345 -6.80337,6.743395 -0.46465,0.5823 -0.83616,0.63757 -4.22148,0.62809 -5.051029,-0.0149 -9.554561,-0.98452 -12.643397,-2.7243 -4.384472,-2.469565 -5.367789,-3.566115 -9.210191,-10.270785 -2.713818,-4.73536 -2.744034,-4.88191 -2.614136,-12.67436 0.104986,-6.30014 0.150464,-6.75175 0.880212,-8.73659 0.951945,-2.58948 3.311371,-6.33451 4.790817,-7.60428 2.954266,-2.5356 5.02701,-3.23504 9.637486,-3.25215 3.844468,-0.0149 4.932123,0.49542 5.828892,2.73161 1.060553,2.64456 1.619087,6.18117 1.638342,10.374 0.01634,3.56428 -0.04116,4.00564 -0.660868,5.07494 -0.373338,0.64412 -0.897386,1.16957 -1.164551,1.16769 -1.508675,-0.01 -2.767513,-0.47664 -3.482261,-1.28896 -0.890911,-1.01256 -1.283504,-1.10221 -1.815461,-0.41462 -0.472264,0.6104 0.0498,1.77209 1.141165,2.53915 1.118317,0.78603 4.011797,1.35729 5.001033,0.98737 1.082383,-0.40475 2.222576,-2.0541 2.584752,-3.73894 0.868203,-4.03904 -0.04902,-12.07034 -1.812886,-15.87327 -1.359521,-2.93121 -2.378234,-3.42341 -7.109852,-3.43513 -1.953652,-0.005 -4.246357,0.14089 -5.094888,0.32391 -5.354115,1.15461 -10.35316,7.16902 -11.923731,14.34556 -0.173265,0.79172 -0.287808,4.25103 -0.26234,7.92247 0.05303,7.63799 0.0444,7.60229 3.158579,13.11589 3.674009,6.50476 5.287038,8.19667 10.396048,10.904435 2.981121,1.57998 7.688212,2.45491 12.872222,2.39263 4.355584,-0.0523 5.160004,-0.28379 6.049974,-1.7408 0.28682,-0.46957 1.0869,-1.42537 1.77794,-2.124 0.69104,-0.69865 1.68767,-1.704085 2.21476,-2.234295 0.52707,-0.53023 1.28585,-1.14752 1.68615,-1.37174 0.40031,-0.22425 1.40917,-0.88865 2.24192,-1.47644 1.753814,-1.23794 3.940544,-4.53619 5.947494,-8.97051 l 1.26229,-2.78903 0.26433,-10.6372 c 0.1835,-7.38489 0.1687,-11.25874 -0.0484,-12.67001 -0.71088,-4.62107 -1.31999,-6.82966 -2.69772,-9.78181 -0.79108,-1.6951 -1.43832,-3.27997 -1.43832,-3.52197 0,-0.24199 -1.14636,-1.76249 -2.54744,-3.37888 -1.401104,-1.61638 -4.223374,-4.91093 -6.271744,-7.32121 -3.41628,-4.01989 -3.90987,-4.47708 -5.96829,-5.52831 -6.13569,-3.13345 -11.084693,-3.36702 -20.731198,-0.97839 -3.122428,0.77318 -6.254399,1.63107 -6.959897,1.90644 -0.705514,0.27537 -1.347914,0.43077 -1.42757,0.34534 -0.219575,-0.23554 -2.010123,1.01097 -4.22852,2.94374 -1.094237,0.95333 -2.600939,2.2393 -3.348231,2.85769 -1.595531,1.32031 -3.686081,3.88043 -5.397127,6.60936 -2.184065,3.48335 -7.07942,14.65152 -7.766804,17.71902 -0.211697,0.94472 -0.55707,1.93953 -0.767472,2.2107 -0.210418,0.27118 -0.385779,0.97386 -0.389695,1.56153 -0.0046,0.58764 -0.147226,1.70088 -0.318471,2.47383 -0.171245,0.77294 -0.301081,2.08844 -0.288532,2.92334 0.01233,0.83488 -0.232032,2.77052 -0.543504,4.3014 -0.715288,3.51564 -1.296977,11.51974 -1.075028,14.79251 0.09327,1.37421 0.635647,4.46607 1.205435,6.87081 0.569804,2.404735 1.169901,5.266445 1.333576,6.359355 0.466576,3.11563 1.796853,5.52694 4.497397,8.15219 2.671885,2.5974 4.070827,4.25164 4.64598,5.49385 0.313538,0.67718 0.813752,1.61772 1.111581,2.09007 0.297844,0.47237 0.399946,0.85884 0.226882,0.85884 -0.173033,0 -0.63244,0.7709 -1.020902,1.71312 -0.63002,1.52817 -0.879055,1.79791 -2.306764,2.49842 -0.880273,0.43192 -1.695675,0.78532 -1.812007,0.78532 -0.485815,0 -3.251216,2.08734 -4.220905,3.18597 -0.961502,1.08935 -1.175928,1.18628 -2.624572,1.18628 -1.73101,0 -2.077122,-0.25403 -4.289538,-3.14814 -1.397662,-1.82835 -5.02476,-9.6697 -7.355758,-15.90238 -0.995743,-2.66239 -2.456211,-6.52715 -3.245513,-8.58834 -1.615464,-4.218685 -1.568783,-3.834115 -1.867182,-15.380945 -0.125643,-4.86515 -0.08572,-6.94875 0.133197,-6.94875 0.218805,0 0.225002,-0.30512 0.02066,-1.01499 -0.316343,-1.0988 -0.919323,-7.54036 -0.942787,-10.07177 -0.01603,-1.72496 0.826224,-7.84703 1.421974,-10.33652 0.452516,-1.89088 1.664365,-5.15864 3.347429,-9.02631 0.672724,-1.54589 1.585711,-3.86474 2.028869,-5.153 1.952744,-5.67664 2.805977,-7.68336 3.55791,-8.36783 0.43286,-0.39402 0.877853,-1.02643 0.988912,-1.40536 0.469567,-1.60239 2.957751,-5.69582 4.463574,-7.34326 0.893794,-0.97784 2.345644,-2.67619 3.226334,-3.77408 0.88069,-1.0979 2.190802,-2.71537 2.911363,-3.59436 0.72056,-0.87898 1.990852,-2.58062 2.822872,-3.781422 2.323969,-3.354055 3.234089,-4.098294 11.58838,-9.4763677 3.231283,-2.08013 6.883154,-3.54109 11.099357,-4.440382 2.449381,-0.522443 3.808163,-0.611876 7.867288,-0.517746 2.698617,0.06251 5.758131,0.2745 6.798951,0.470945 1.040804,0.196462 2.940484,0.511925 4.221475,0.701045 3.475481,0.513099 4.648311,1.102567 8.028731,4.03537 1.97055,1.709614 4.20951,3.2901217 6.21789,4.3892987 2.518384,1.378275 3.613234,2.211319 5.541194,4.216088 2.71442,2.822581 5.86153,7.270031 8.37384,11.833781 0.93534,1.69909 2.20696,3.87742 2.82581,4.84069 1.18302,1.84145 3.51222,5.93323 3.51222,6.17004 0,0.0762 0.47296,1.22132 1.05102,2.54458 1.53555,3.51509 2.11342,5.18343 2.7157,7.84054 0.521,2.29846 1.59536,5.86667 2.10019,6.97519 0.13582,0.29826 0.26189,3.81169 0.28016,7.80758 0.0182,3.99591 0.11655,9.09228 0.21834,11.32524 0.16229,3.55839 0.10838,4.3686 -0.4361,6.55837 -0.3417,1.37414 -0.75122,3.20112 -0.91004,4.05994 -0.27865,1.50669 -0.72084,3.49439 -1.80638,8.11989 -0.69374,2.95606 -3.72976,9.973545 -5.2887,12.224355 -1.56234,2.25572 -2.23396,3.2894 -4.34459,6.68675 -1.82555,2.93844 -3.062,4.15407 -7.40858,7.2838 -3.29611,2.37333 -5.822924,4.32285 -6.689854,5.16144 -0.77356,0.74827 -3.45418,2.27315 -5.10119,2.90181 -0.72056,0.27503 -2.68573,0.78664 -4.36703,1.1369 -9.418161,1.96203 -12.130437,2.25605 -17.46821,1.89352 z"
     id="path25" /><path
     style="fill:#808080;fill-opacity:1;stroke:#000000;stroke-width:0.301534;stroke-opacity:1"
     d="m 53.550518,158.85059 c -0.400316,-0.14123 -1.326639,-0.27078 -2.058499,-0.2879 -2.066978,-0.0483 -6.265468,-1.13623 -9.150253,-2.37095 -1.441136,-0.6168 -3.537313,-1.38942 -4.658189,-1.71691 -1.120877,-0.3275 -2.561998,-0.75955 -3.202501,-0.96015 -1.12954,-0.35373 -6.171535,-3.27408 -10.626491,-6.15494 -1.200934,-0.7766 -3.36263,-2.11694 -4.803751,-2.97854 -1.441121,-0.86161 -3.32005,-2.17606 -4.17538,-2.92105 -0.855346,-0.74496 -1.681153,-1.35449 -1.835147,-1.35449 -0.380368,0 -4.01909,-3.13681 -5.868404,-5.05894 C 6.345,134.18727 4.978171,132.99259 4.134496,132.39187 3.29082,131.79116 2.5336,131.18347 2.451785,131.04145 c -0.146763,-0.25471 0.486633,-0.78942 4.244107,-3.5829 1.73454,-1.28955 4.235596,-2.58799 10.025855,-5.20503 2.30809,-1.04318 5.703434,-1.82693 7.86069,-1.81446 l 1.455674,0.008 1.292815,2.96872 c 1.75529,4.03076 4.451102,7.60038 6.410566,8.48846 1.965863,0.891 4.911588,-0.007 6.56231,-2.00016 0.513518,-0.62008 2.133068,-1.72764 3.930352,-2.6878 2.875196,-1.53606 3.100198,-1.72599 3.784776,-3.19466 0.400301,-0.85884 0.858044,-1.66127 1.017202,-1.78319 0.159143,-0.12187 0.683191,0.16223 1.164551,0.63151 2.218968,2.16315 6.201613,4.81579 9.088942,6.05372 10.349691,4.43737 10.536229,4.48149 17.218786,4.07127 2.985361,-0.18327 6.41052,-0.55072 7.611454,-0.81657 1.200933,-0.26586 3.878381,-0.83697 5.949861,-1.26913 3.01578,-0.62919 4.28575,-1.06845 6.37261,-2.20419 1.43345,-0.78013 3.01388,-1.77052 3.51208,-2.20091 2.939884,-2.53966 5.877164,-4.76798 8.912054,-6.76097 1.80453,-1.18503 3.91326,-3.67433 6.22918,-7.35336 1.3791,-2.19085 3.07128,-4.82658 3.76039,-5.85717 0.68911,-1.0306 1.62363,-2.78731 2.07673,-3.9038 0.45311,-1.11648 1.30683,-3.154265 1.89719,-4.528405 0.60214,-1.40161 1.29434,-3.73234 1.57673,-5.30916 0.27687,-1.5459 0.69064,-3.44314 0.9195,-4.21609 0.22887,-0.77295 0.60716,-2.48643 0.84064,-3.80774 0.73858,-4.17977 2.25817,-8.13546 3.73538,-9.72374 0.51979,-0.55889 1.40361,-1.842 1.96406,-2.85136 0.56043,-1.00935 1.33647,-2.12791 1.72453,-2.48565 1.83216,-1.6891 2.57928,-2.74427 3.35517,-4.73854 0.46177,-1.1869 1.52378,-3.2823 2.36004,-4.65642 1.24618,-2.04773 1.82831,-2.68962 3.22702,-3.55829 0.93859,-0.58293 2.03408,-1.28853 2.43438,-1.56802 0.65849,-0.45974 2.16265,-1.13197 7.00566,-3.13099 0.89081,-0.3677 1.8079,-0.59147 2.03797,-0.49729 0.23007,0.0943 1.93155,0.35836 3.78106,0.58706 2.99009,0.36974 3.58695,0.55019 5.38603,1.62841 1.1128,0.66693 2.42727,1.64519 2.92104,2.1739 0.49377,0.52873 2.24387,1.77889 3.88911,2.77816 2.65058,1.6099 3.05475,1.97059 3.54782,3.16629 0.30606,0.74219 0.67179,2.30666 0.81275,3.4766 0.16173,1.34244 0.85938,3.74005 1.89115,6.49939 0.89918,2.40474 2.04128,5.49653 2.538,6.87067 0.49671,1.37414 1.35588,3.593 1.90925,4.93083 l 1.00615,2.43239 -0.11193,8.34208 c -0.10961,8.167305 -0.38858,11.071745 -1.4504,15.101135 -0.51984,1.97267 -0.53971,1.97889 -2.84914,0.89157 -1.16429,-0.54816 -2.98308,-1.34558 -4.04175,-1.77206 -3.34688,-1.34828 -4.35569,-2.17608 -5.16724,-4.24014 -0.69201,-1.76006 -1.92589,-2.73149 -3.46939,-2.73149 -1.7453,0 -2.22868,0.79296 -2.10976,3.46093 l 0.0874,1.96111 2.47466,1.60024 c 1.36106,0.88013 3.58825,2.07323 4.94931,2.65136 1.36106,0.57812 3.29677,1.44879 4.30156,1.93482 1.0048,0.48601 1.9472,0.88368 2.09424,0.88368 0.28277,0 1.17375,1.22808 1.17375,1.61783 0,0.12634 -0.55679,0.58451 -1.23733,1.01824 -0.68052,0.43372 -1.88349,1.58301 -2.67326,2.55396 l -1.43594,1.76537 -2.37544,-0.17982 c -3.58312,-0.27125 -7.97955,-2.07833 -9.84286,-4.04574 -0.77418,-0.81743 -2.22876,-2.11483 -3.23241,-2.88308 -1.83533,-1.40488 -2.13907,-1.80022 -4.68099,-6.09284 -1.85297,-3.12918 -4.67664,-6.09314 -6.07227,-6.37401 -1.35027,-0.27172 -2.98996,0.0422 -4.1554,0.79541 -1.80045,1.16368 -3.30639,4.02978 -3.30639,6.29266 0,1.62855 -1.36164,9.90552 -1.96329,11.93422 -0.25471,0.85884 -0.87399,2.26421 -1.37617,3.12305 -0.50218,0.85882 -1.47441,2.97844 -2.16048,4.71025 -0.70009,1.76713 -1.74325,3.77096 -2.37742,4.56681 -1.38633,1.73979 -7.42619,6.66341 -10.5296,8.58361 -1.25823,0.7785 -2.98707,2.10113 -3.84186,2.93917 -0.85479,0.83802 -2.19227,1.84517 -2.97218,2.23811 -1.78878,0.90122 -5.35453,3.01831 -5.93061,3.52118 -0.4842,0.42264 -5.83794,2.94818 -10.335354,4.87552 -3.05673,1.30995 -3.94252,1.58445 -9.607519,2.97721 l -3.493638,0.85891 -14.847967,0.0635 c -8.166381,0.0349 -15.175487,-0.0521 -15.575803,-0.19335 z M 161.5622,93.560445 c 0.72056,-0.16339 2.22719,-0.4191 3.34806,-0.56822 2.92695,-0.3894 5.06219,-1.44568 5.57291,-2.75683 0.43774,-1.12386 0.3254,-1.99747 -0.48736,-3.78992 -0.50683,-1.11773 -0.50364,-1.16033 0.19722,-2.64398 0.80111,-1.69584 1.84546,-5.82665 1.83283,-7.24957 -0.0282,-3.18523 -2.93547,-7.24276 -7.08874,-9.89357 -3.34473,-2.13475 -6.25141,-1.98076 -11.13994,0.59021 -2.30769,1.21363 -3.05279,1.95428 -4.41575,4.38927 -0.84916,1.51704 -0.91958,1.85537 -0.91015,4.37225 0.006,1.50036 0.19753,3.64143 0.42648,4.75793 0.22893,1.11649 0.42085,3.09815 0.42648,4.40371 0.0123,2.6908 0.37152,4.09028 1.39177,5.4115 0.783,1.01394 2.69479,2.40206 4.01793,2.91732 1.0767,0.4193 5.08828,0.4545 6.82826,0.0599 z"
     id="path26" /><path
     style="fill:#f9f9f9;fill-opacity:1;stroke:#000000;stroke-width:0.301534;stroke-opacity:1"
     d="m 155.67076,91.699965 c -1.19305,-0.38535 -2.72595,-1.48005 -3.55821,-2.54104 -0.64368,-0.82061 -0.74013,-1.23835 -0.74013,-3.20583 0,-1.24424 -0.26203,-3.57754 -0.58227,-5.18508 -0.82524,-4.14242 -0.77569,-6.29895 0.18596,-8.09246 0.42254,-0.78803 0.97934,-1.69392 1.23734,-2.01309 1.03618,-1.28183 6.51331,-3.6358 8.45963,-3.6358 1.22615,0 4.8268,2.1378 6.42071,3.81216 1.47227,1.54655 2.63602,3.46659 2.9201,4.81774 0.27881,1.32605 -0.2283,4.15201 -1.16629,6.49934 l -0.57198,1.43138 -1.91943,-1.40965 c -1.05569,-0.77529 -2.14042,-1.40807 -2.41051,-1.40619 -1.50422,0.01 -2.77416,0.4965 -3.82941,1.46543 -1.16469,1.06941 -1.17431,1.09617 -1.17431,3.27091 0,2.40229 0.40489,3.62756 1.70223,5.15123 l 0.81888,0.96175 -1.73996,0.19508 c -2.14528,0.24053 -3.02696,0.21533 -4.05235,-0.11593 z"
     id="path27" /></svg>
